<?xml version="1.0" encoding="utf-8"?>
<!-- Generator: Adobe Illustrator 24.0.0, SVG Export Plug-In . SVG Version: 6.00 Build 0)  -->
<svg version="1.1" id="Layer_1" xmlns="http://www.w3.org/2000/svg" xmlns:xlink="http://www.w3.org/1999/xlink" x="0px" y="0px"
	 viewBox="0 0 529.71 594.9" style="enable-background:new 0 0 529.71 594.9;" xml:space="preserve">
<style type="text/css">
	.st0{fill:#FFFFFF;}
	.st1{fill:#304451;}
</style>
<g>
	<g id="Layer_9">
		<g id="Layer_8">
		</g>
		<g>
			<path class="st0" d="M447.82,522.94c-0.04,0-0.07,0-0.11-0.01c-39.95-8.66-74.98-11.98-108.85-15.19
				c-45.48-4.31-92.51-8.76-153.41-25.99c-55.22-15.63-81.41-38.57-93.66-55.07c-12.26-16.52-13.4-30.1-13.5-32.25
				c-8.84-5.03-18.65-16.77-18.75-16.88c-0.06-0.08-0.1-0.17-0.11-0.27l-0.86-8.57c-0.02-0.23,0.11-0.44,0.33-0.52l2.81-1.02v-1.31
				l-1.02-15.25l-2.81-2.42c-0.1-0.09-0.16-0.21-0.17-0.34l-1.14-13.94c-0.02-0.25,0.15-0.48,0.4-0.53
				c14.77-3.05,50.88-6.2,55.37-6.59v-50.63c-17.55-5.47-31.02-14.26-31.16-14.34c-0.14-0.09-0.23-0.25-0.23-0.42v-5.25
				c0-0.25,0.19-0.47,0.44-0.5l6.41-0.74v-14.06c0-0.14,0.06-0.28,0.17-0.38c0.11-0.1,0.25-0.14,0.39-0.12
				c5.18,0.68,18.01,1.02,38.13,1.02c23.77,0,49.54-0.5,49.8-0.5c0.04,0,0.08,0,0.11,0.01c12.22,2.6,57.13,9.24,59.15,9.54
				c5.34-0.66,12.81-0.99,22.2-0.99c16.05,0,32.39,0.98,32.56,0.99c0.26,0.02,0.47,0.23,0.47,0.5v20.87h17
				c0.27,0,0.49,0.22,0.5,0.49l0.16,6.04c0.01,0.26-0.18,0.48-0.44,0.51l-17.23,2.16v70.33c32.56-2.35,66.01-3.54,99.42-3.54
				c54.11,0,90.83,3.17,94.95,3.55l10.15-27.63c0.06-0.17,0.21-0.29,0.39-0.32l19.42-3.14c0.07-0.01,0.14-0.01,0.21,0.01l14,3.84
				c0.22,0.06,0.37,0.27,0.37,0.5c-0.01,0.23-0.17,0.43-0.39,0.48l-9.79,2.16l-71.24,195.4
				C448.22,522.82,448.03,522.94,447.82,522.94z M60.42,377.02c1.05,1.24,10.34,12.07,18.61,16.67c0.16,0.09,0.26,0.25,0.26,0.43
				c0,0.14,0.21,14.34,13.37,32.03c12.16,16.35,38.18,39.1,93.07,54.63c60.81,17.21,107.79,21.66,153.23,25.96
				c33.79,3.2,68.71,6.51,108.54,15.11l71.18-195.25c0.06-0.16,0.2-0.28,0.36-0.32l8.09-1.78l-11.94-3.28l-19.03,3.08l-10.17,27.73
				c-0.08,0.21-0.29,0.34-0.52,0.33c-0.37-0.04-38.1-3.58-95.24-3.58c-33.57,0-67.17,1.2-99.88,3.58c-0.14,0.01-0.28-0.04-0.38-0.13
				c-0.1-0.09-0.16-0.23-0.16-0.37v-71.31c0-0.25,0.19-0.46,0.44-0.5l17.22-2.15l-0.14-5.1h-17.02c-0.28,0-0.5-0.22-0.5-0.5v-20.89
				c-2.79-0.16-17.53-0.96-32.03-0.96c-9.4,0-16.85,0.33-22.15,0.99c-0.05,0-0.09,0-0.13,0c-0.47-0.07-46.67-6.89-59.22-9.55
				c-1.38,0.03-26.52,0.5-49.76,0.5c-19.47,0-32.14-0.32-37.7-0.96v13.94c0,0.25-0.19,0.47-0.44,0.5l-6.41,0.74v4.54
				c1.84,1.17,14.69,9.15,31.03,14.19c0.21,0.06,0.35,0.26,0.35,0.48v51.45c0,0.26-0.2,0.48-0.46,0.5
				c-0.4,0.03-39.37,3.32-55.28,6.52l1.09,13.29l2.81,2.43c0.1,0.09,0.16,0.21,0.17,0.35l1.03,15.49v1.69c0,0.21-0.13,0.4-0.33,0.47
				l-2.78,1.01L60.42,377.02z"/>
			<path class="st0" d="M57.08,335.53c0,0,40.75,63.72,203,48.33c174.47-16.56,229.85-23.06,229.85-23.06l-5.26,14.42
				c0,0-244.5,33.05-342.9,15.02c0,0-56.34-11.27-83.55-42.43L57.08,335.53z"/>
			<path class="st0" d="M111.06,329.24v4.18c0,0-38.88,4.58-41.98,5.52c0,0,24.64,29.49,77.01,39.99c0,0-59.78-11.41-86.98-43.41
				C59.12,335.53,99.19,329.23,111.06,329.24z"/>
			<path class="st0" d="M62.22,367.52c0,0,40.39,58.14,183.09,58.68c127.8,0.49,236.25-18.34,236.25-18.34l-3.76,10.5
				c0,0-187.36,22.11-271.05,14.19S82.21,404.57,59.93,377.23l-0.86-8.57L62.22,367.52z"/>
			<g>
				<polygon class="st0" points="448.29,522.61 447.35,522.27 518.47,327.21 495.74,324.37 495.86,323.37 519.84,326.37 
					519.62,326.96 				"/>
			</g>
			<g>
				
					<rect x="379.33" y="440.29" transform="matrix(0.3104 -0.9506 0.9506 0.3104 -99.6929 744.1569)" class="st0" width="167.46" height="1"/>
			</g>
			<path class="st0" d="M485.02,356.09l-1.38,3.86c0,0-236.94,26.1-274.13,23.69C209.51,383.64,445.41,364.7,485.02,356.09z"/>
			<path class="st0" d="M110.91,335.53l-37.54,4.8c0,0,15.98,16.3,37.54,25.24V335.53z"/>
			<g>
				<path class="st0" d="M184.32,383.02l-0.85-0.01c-0.5-0.07-50.51-7.15-71.64-16.2l-0.61-0.26v-90.37l1.4,0.61
					c0.19,0.08,19.75,8.48,54.68,8.48c5.44,0,11.05-0.2,16.67-0.61l106.71-5.8v95.89l-0.91,0.08
					C288.91,374.92,203.18,383.02,184.32,383.02z M183.68,381.02h0.64c17.72,0,95.08-7.22,104.36-8.09v-91.96l-104.58,5.69
					c-5.65,0.41-11.3,0.61-16.79,0.61c-30.09,0-48.98-6.19-54.08-8.1v86.04C134.09,373.9,181.62,380.73,183.68,381.02z"/>
			</g>
			<g>
				<path class="st0" d="M305.5,272.47c-28.38-1.54-116.66,5.45-120.4,5.75l-0.11,0.01c-58.88,6.85-101.43-21.11-101.85-21.39
					l-1.62-1.21c-0.36,0-0.87,0.07-0.87,0.07v6.72c1.6,1.07,34.8,22.93,85.28,22.93c6.32,0,12.9-0.35,19.7-1.14
					c2.66-0.21,91.83-7.24,119.55-5.74l3,0.16l0.33-5.99L305.5,272.47z"/>
			</g>
			<g>
				<path class="st1" d="M167.54,274.06c-18.1,0-52.49-2.4-79.35-18.49l-0.12-0.07v-15.8l0.36,0.19
					c0.31,0.16,31.56,16.01,71.44,16.01c8.43,0,16.76-0.71,24.76-2.11c0.47-0.04,45.54-3.8,82.06-3.8c9.14,0,17.1,0.24,23.64,0.7
					l0.23,0.02v17.71l-0.24,0.01c-0.7,0.02-70.45,1.8-105.4,4.86C184.86,273.29,177.99,274.06,167.54,274.06z M88.57,255.22
					c26.74,15.96,60.94,18.34,78.97,18.34c10.42,0,17.26-0.76,17.33-0.77c33.93-2.97,100.61-4.74,105.19-4.86v-16.76
					c-6.48-0.45-14.34-0.68-23.37-0.68c-36.5,0-81.55,3.75-82,3.79c-8,1.4-16.36,2.12-24.82,2.12c-37.67,0-67.68-14.11-71.3-15.88
					L88.57,255.22L88.57,255.22z"/>
			</g>
			<g>
				<path class="st0" d="M167.89,274.77c-19.97,0-53.63-2.71-80.08-18.56l-0.86-0.51l1.03-1.72l0.86,0.51
					c39.46,23.63,95.39,17.61,95.95,17.54c35.01-3.06,104.8-4.85,105.5-4.87l1-0.03l0.05,2l-1,0.02c-0.7,0.02-70.43,1.8-105.35,4.86
					C184.8,274.05,178.15,274.77,167.89,274.77z"/>
			</g>
			<g>
				<path class="st0" d="M160.06,257.13c-40.3,0-71.89-16.08-72.27-16.28v-1.31l2.37,0.42l1.49,0.39
					c0.37,0.19,28.61,14.77,68.42,14.77c7.86,0,16.07-0.61,24.44-2.08c0.77-0.07,68.88-5.73,105.88-3.11l1,0.07l-0.14,2l-1-0.07
					c-36.84-2.62-104.8,3.03-105.48,3.09C176.3,256.51,168.01,257.13,160.06,257.13z"/>
			</g>
			<g>
				<path class="st0" d="M241.17,251.74c-25.26,0-58.75-9.73-61.74-10.61c-31.23,4.34-88.82,0.87-89.4,0.83l-1.76-0.87l0.89-1.19
					l1,0.06c0.58,0.04,58.23,3.51,89.21-0.85l0.22-0.03l0.21,0.06c0.41,0.12,41.07,12.3,67.27,10.39l1-0.07l0.15,2l-1,0.07
					C245.27,251.68,243.25,251.74,241.17,251.74z"/>
			</g>
			<path class="st0" d="M94.81,241.22v-61.51c0,0,4-1.82,7.64,0v61.87L94.81,241.22z"/>
			<path class="st0" d="M173.51,239.93V179.7c0,0,4-1.78,7.64,0v60.58L173.51,239.93z"/>
			<path class="st0" d="M84.24,192.61c0,0-2.36,4,0,6.18h104.59c0,0,2.18-4.36,0-6.18H84.24z"/>
			<path class="st0" d="M182.96,253.32v-22.9c0,0,5.8-2.18,10.44,0v22.9H182.96z"/>
			<path class="st0" d="M169.6,238.65l128.03-2.37c0,0,1.46,4.38,0,6.02l-128.03,3.13C169.6,245.43,167.42,240.48,169.6,238.65z"/>
			<path class="st0" d="M289.43,250.75v-22.49c0,0-4.72-2.19-8.56,0v22.2L289.43,250.75z"/>
			<polygon class="st0" points="234.38,250.54 237.19,153.18 235.21,153.18 235.2,151.32 243.6,151.32 243.6,153.16 241.48,153.16 
				241.55,250.7 			"/>
			<polygon class="st0" points="450.36,523.54 529.71,324.47 519.65,326.58 447.72,522.93 			"/>
			<g>
				<path class="st0" d="M453.47,357.81c19.46-2.51,32.05-4.29,32.05-4.29c-59.27-7.03-192.37-0.1-192.37-0.1v7.01
					C316.46,359.14,398.32,355.06,453.47,357.81z"/>
				<path class="st0" d="M293.15,362.43v11.24c44.32-1.95,106.78-9.11,148.37-14.35C387.12,357.62,314.68,361.25,293.15,362.43z"/>
			</g>
			<path class="st0" d="M123.04,306.73l-6.96-2.86v-21.54c0,0,2.46,0.67,6.7,1.61L123.04,306.73z"/>
			<polygon class="st0" points="126.49,308.11 135.39,311.75 135.39,286.9 126.49,285.04 			"/>
			<polygon class="st0" points="139.44,287.66 149.96,289.5 149.96,316.2 139.44,312.97 			"/>
			<path class="st0" d="M165.94,290.23l15.17-0.73v59.48c0,0-11.94-1.42-15.17-1.82V290.23z"/>
			<g>
				<path class="st0" d="M167.63,290.73c-28.7,0-54.65-9.15-54.95-9.26l0.34-0.94c0.34,0.12,34.76,12.26,68.04,8.47l0.11,0.99
					C176.65,290.51,172.11,290.73,167.63,290.73z"/>
			</g>
			<g>
				<path class="st0" d="M165.52,320c-21.6-2.74-52.93-17.52-53.24-17.67l0.43-0.9c0.31,0.15,31.49,14.86,52.94,17.58L165.52,320z"
					/>
			</g>
			<g>
				<path class="st0" d="M154.56,328.72l-0.94-0.18c-19.55-3.83-38.84-14.61-42.4-16.66v4.6c6.44,3.58,23.67,12.47,41.63,15.99
					l1.7,0.33L154.56,328.72L154.56,328.72z"/>
			</g>
			<g>
				<path class="st0" d="M113.4,330.08l-0.67-0.43v2.38c16.98,10.67,66.14,17.66,68.25,17.95l0.2,0.03v-2.02
					C178.93,347.66,129.31,340.47,113.4,330.08z"/>
			</g>
			<g>
				
					<rect x="133.3" y="331.13" transform="matrix(1.899994e-03 -1 1 1.899994e-03 -148.0091 514.9652)" class="st0" width="101.33" height="1"/>
			</g>
			<g>
				<path class="st0" d="M184.19,364.68c-39.27-1.7-71.42-15.48-71.74-15.62l0.8-1.83c0.32,0.14,32.15,13.78,71.03,15.46
					L184.19,364.68z"/>
			</g>
			<polygon class="st0" points="193.4,289.5 222.01,287.66 221.06,314.29 193.4,316.2 			"/>
			<polygon class="st0" points="228.59,313.72 253.99,311.75 254.93,285.04 229.34,286.82 			"/>
			<polygon class="st0" points="261.7,285.04 260.95,311.75 282.02,311.05 282.96,284.19 			"/>
			<g>
				<path class="st0" d="M183.35,320.26l-0.14-2l1-0.07c0.89-0.06,88.96-6.1,104.97-6.1h1v2h-1c-15.94,0-103.94,6.04-104.83,6.1
					L183.35,320.26z"/>
			</g>
			<polygon class="st0" points="415.19,353.41 409.64,133.57 401.14,133.57 403.36,353.41 			"/>
			<g>
				<path class="st0" d="M432.12,351.56l-16.05-0.21l-5.52-218.04h10.48l0.05,0.95L432.12,351.56z M418.02,349.38l12,0.15
					l-10.89-214.22h-6.53L418.02,349.38z"/>
			</g>
			<g>
				<path class="st0" d="M423.21,133.41h-25.09l0.95-13.15l23.13-0.83L423.21,133.41z M400.28,131.41h20.79l-0.71-9.91l-19.41,0.7
					L400.28,131.41z"/>
			</g>
			<path class="st0" d="M90.1,269.88c0,0,5.62,2.92,8.53,4.71v84.85l-8.44-5.36L90.1,269.88z"/>
			<g>
				<path class="st0" d="M185.47,255.2l-10.02-1.93c-12.67,1.25-49.31,0.04-50.88-0.01l-1.26-0.75l0.33-1.28l1,0.03
					c0.38,0.01,38.36,1.27,50.75,0l0.15-0.02l10.31,1.99L185.47,255.2z"/>
			</g>
			<g>
				<rect x="175.32" y="241.9" class="st0" width="2" height="11.36"/>
			</g>
			<path class="st0" d="M95.49,247.09c-0.51-0.21-0.42-0.11-0.85-0.29c-1.42-0.61-3,0.43-3,1.98v3.05c0,0.81,0.45,1.56,1.17,1.92
				c0.49,0.25,0.43,0.19,0.92,0.43c1.43,0.7,3.1-0.35,3.1-1.94v-3.16C96.83,248.21,96.3,247.42,95.49,247.09z"/>
			<path class="st0" d="M98.63,251.46V255c0,0.87,0.52,1.66,1.32,1.99c0.36,0.15,1.11,0.51,1.47,0.66c1.41,0.57,2.96-0.48,2.96-2
				v-3.59c0-0.91-0.58-1.73-1.44-2.03c-0.35-0.12-1.08-0.46-1.42-0.58C100.11,248.93,98.63,249.97,98.63,251.46z"/>
			<path class="st0" d="M106.45,254.14V258c0,0.92,0.59,1.75,1.46,2.04c0.76,0.26,1.52,0.5,2.28,0.74c1.39,0.44,2.81-0.6,2.81-2.06
				v-3.93c0-0.96-0.64-1.81-1.57-2.07c-0.75-0.22-1.49-0.44-2.2-0.65C107.84,251.65,106.45,252.69,106.45,254.14z"/>
			<path class="st0" d="M115.4,256.59v4.06c0,0.98,0.66,1.85,1.62,2.09c1.47,0.38,2.94,0.73,4.4,1.06c1.34,0.3,2.61-0.74,2.61-2.11
				v-4.1c0-1.02-0.72-1.89-1.71-2.1c-1.47-0.32-2.89-0.65-4.26-0.99C116.7,254.16,115.4,255.19,115.4,256.59z"/>
			<path class="st0" d="M126.54,258.94v4.1c0,1.04,0.75,1.94,1.78,2.12c1.77,0.31,3.52,0.59,5.25,0.83c1.3,0.18,2.47-0.82,2.47-2.13
				v-4.09c0-1.07-0.79-1.97-1.85-2.13c-1.75-0.26-3.46-0.54-5.13-0.83C127.74,256.58,126.54,257.6,126.54,258.94z"/>
			<path class="st0" d="M138.66,260.66v4.03c0,1.1,0.84,2.04,1.93,2.15c2.43,0.24,4.81,0.43,7.13,0.58c1.24,0.08,2.3-0.9,2.3-2.15
				v-3.98c0-1.14-0.89-2.07-2.02-2.14c-2.37-0.16-4.68-0.37-6.94-0.61C139.78,258.39,138.66,259.38,138.66,260.66z"/>
			<path class="st0" d="M153.07,261.62v3.95c0,1.17,0.94,2.13,2.12,2.15c2.95,0.07,5.74,0.06,8.33,0.01
				c1.17-0.02,2.11-0.98,2.11-2.16v-3.95c0-1.21-1-2.18-2.22-2.15c-2.76,0.06-5.47,0.05-8.12-0.02
				C154.08,259.43,153.07,260.4,153.07,261.62z"/>
			<path class="st0" d="M169.02,261.29v3.99c0,1.24,1.05,2.22,2.29,2.15c4.43-0.26,7.81-0.62,9.76-0.85c1.08-0.13,1.9-1.05,1.9-2.14
				v-4.06c0-1.3-1.14-2.29-2.43-2.13c-3.22,0.4-6.39,0.69-9.49,0.9C169.9,259.22,169.02,260.15,169.02,261.29z"/>
			<path class="st0" d="M217.65,255.21c-9.99,0.61-17.79,1.24-21.44,1.55c-1.29,0.11-2.27,1.19-2.27,2.48v3.46
				c0,1.48,1.29,2.64,2.76,2.47c6.47-0.74,13.74-1.31,21.24-1.74c1.32-0.08,2.35-1.16,2.35-2.48v-3.25
				C220.29,256.26,219.08,255.12,217.65,255.21z"/>
			<path class="st0" d="M250.08,253.8c-6.41,0.15-12.73,0.38-18.68,0.66c-1.33,0.06-2.36,1.16-2.36,2.48v3.34
				c0,1.41,1.17,2.54,2.59,2.48c6.39-0.24,12.68-0.41,18.56-0.52c1.36-0.03,2.44-1.13,2.44-2.49v-3.47
				C252.62,254.89,251.48,253.77,250.08,253.8z"/>
			<path class="st0" d="M259.82,256.13v3.46c0,1.38,1.13,2.5,2.51,2.49c7.93-0.07,14.2-0.05,17.47-0.03c1.38,0.01,2.5-1.11,2.5-2.49
				v-3.14c0-1.33-1.04-2.43-2.38-2.49c-5.66-0.23-11.61-0.31-17.62-0.29C260.93,253.64,259.82,254.76,259.82,256.13z"/>
			<g>
				<path class="st0" d="M192.27,351.27v-28.29l0.47-0.03c0,0,12.22-0.84,27.66-1.88l0.53-0.04v27.58L192.27,351.27z M193.27,323.91
					v26.26l26.66-2.47v-25.6C206.5,323.01,195.61,323.75,193.27,323.91z"/>
			</g>
			<g>
				<path class="st0" d="M226.89,348.06v-27.43l0.47-0.03c8.76-0.59,18.07-1.21,26.53-1.76l0.53-0.03v26.7L226.89,348.06z
					 M227.89,321.57v25.39l25.53-2.37v-24.72C245.26,320.41,236.33,321,227.89,321.57z"/>
			</g>
			<g>
				<path class="st0" d="M259.25,345.06V318.5l0.47-0.03c11.1-0.72,18.31-1.16,21.45-1.31l0.52-0.02v25.84L259.25,345.06z
					 M260.25,319.43v24.53l20.45-1.9v-23.88C277.37,318.35,270.51,318.77,260.25,319.43z"/>
			</g>
			<g>
				<path class="st0" d="M192.39,380.75v-19.84l28.66-2.53v18.84L192.39,380.75z M193.39,361.83v17.79l26.66-3.28v-16.86
					L193.39,361.83z"/>
			</g>
			<g>
				<path class="st0" d="M227.17,376.64v-18.63l27.53-2.43v17.68L227.17,376.64z M228.17,358.93v16.59l25.53-3.14v-15.7
					L228.17,358.93z"/>
			</g>
			<g>
				<path class="st0" d="M259.52,372.67v-17.51l22.48-1.98l-1.02,16.85L259.52,372.67z M260.52,356.08v15.46l19.51-2.4l0.9-14.86
					L260.52,356.08z"/>
			</g>
			<g>
				<path class="st0" d="M321.53,368.02c-0.06,0-0.11-0.01-0.17-0.03c-0.26-0.09-0.39-0.38-0.3-0.64l82.5-230.21
					c0.09-0.26,0.38-0.4,0.64-0.3c0.26,0.09,0.39,0.38,0.3,0.64L322,367.69C321.93,367.89,321.73,368.02,321.53,368.02z"/>
			</g>
			<g>
				<path class="st0" d="M471.96,352.74c-0.22,0-0.42-0.15-0.48-0.37l-56.77-217.92c-0.07-0.27,0.09-0.54,0.36-0.61
					c0.27-0.07,0.54,0.09,0.61,0.36l56.77,217.92c0.07,0.27-0.09,0.54-0.36,0.61C472.04,352.73,472,352.74,471.96,352.74z"/>
			</g>
			<g>
				<path class="st0" d="M343.22,361.29c-0.05,0-0.09-0.01-0.14-0.02c-0.26-0.08-0.42-0.35-0.34-0.62l64.95-223.49
					c0.08-0.26,0.35-0.42,0.62-0.34c0.26,0.08,0.42,0.35,0.34,0.62L343.7,360.93C343.63,361.15,343.43,361.29,343.22,361.29z"/>
			</g>
			<g>
				<path class="st0" d="M359.72,361.29c-0.04,0-0.08,0-0.11-0.01c-0.27-0.06-0.44-0.33-0.37-0.6l51.85-223.49
					c0.06-0.27,0.33-0.44,0.6-0.37c0.27,0.06,0.44,0.33,0.37,0.6L360.2,360.91C360.15,361.14,359.94,361.29,359.72,361.29z"/>
			</g>
			<g>
				<path class="st0" d="M457.3,353.91c-0.23,0-0.44-0.16-0.49-0.4L414.7,144.26c-0.05-0.27,0.12-0.53,0.39-0.59
					s0.53,0.12,0.59,0.39l42.11,209.26c0.05,0.27-0.12,0.53-0.39,0.59C457.37,353.91,457.33,353.91,457.3,353.91z"/>
			</g>
			<g>
				<path class="st0" d="M445.88,355.9c-0.24,0-0.46-0.18-0.49-0.42l-30.7-198.02c-0.04-0.27,0.14-0.53,0.42-0.57
					c0.27-0.04,0.53,0.14,0.57,0.42l30.7,198.02c0.04,0.27-0.14,0.53-0.42,0.57C445.94,355.9,445.91,355.9,445.88,355.9z"/>
			</g>
			<g>
				<path class="st0" d="M375.69,361.29c-0.03,0-0.05,0-0.08-0.01c-0.27-0.04-0.46-0.3-0.42-0.57l28.34-176.98
					c0.04-0.27,0.31-0.46,0.57-0.41c0.27,0.04,0.46,0.3,0.41,0.57l-28.34,176.98C376.14,361.12,375.93,361.29,375.69,361.29z"/>
			</g>
			<g>
				<path class="st0" d="M196.82,241.36c-0.28,0-0.5-0.22-0.5-0.5s0.22-0.5,0.5-0.5c55-0.06,108.3-28.5,143.33-52.35
					c37.98-25.86,63.27-52.05,63.52-52.31c0.19-0.2,0.51-0.2,0.71-0.01s0.21,0.51,0.01,0.71c-0.25,0.26-25.6,26.51-63.66,52.43
					C305.58,212.76,252.08,241.3,196.82,241.36L196.82,241.36z"/>
			</g>
			<g>
				<path class="st0" d="M286.65,239.52c-0.21,0-0.41-0.14-0.48-0.35c-0.08-0.26,0.06-0.54,0.33-0.63
					c47.39-14.93,116.46-95.4,117.15-96.21c0.18-0.21,0.5-0.23,0.7-0.06c0.21,0.18,0.24,0.49,0.06,0.71
					c-0.69,0.81-69.94,81.5-117.61,96.51C286.75,239.51,286.7,239.52,286.65,239.52z"/>
			</g>
			<g>
				<path class="st0" d="M187.19,383.13c-0.21,0-0.4-0.13-0.47-0.33c-0.09-0.26,0.04-0.55,0.3-0.64
					c49.95-17.89,106.6-83.9,145.33-136.13c41.99-56.63,72.54-109.7,72.84-110.23c0.14-0.24,0.44-0.32,0.68-0.19
					c0.24,0.14,0.32,0.44,0.18,0.68c-0.3,0.53-30.88,53.65-72.9,110.32c-38.81,52.34-95.61,118.51-145.8,136.48
					C187.31,383.12,187.25,383.13,187.19,383.13z"/>
			</g>
			<g>
				<path class="st0" d="M181.12,196.2c-0.27,0-0.5-0.22-0.5-0.5s0.22-0.5,0.5-0.5c45.81-0.36,59.14-27.75,59.26-28.03l0.17-0.36
					l0.39,0.08c43.25,9.36,84.43-0.32,111.36-10.08c29.19-10.58,48.37-23.53,48.56-23.66c0.23-0.16,0.54-0.1,0.69,0.13
					c0.16,0.23,0.1,0.54-0.13,0.69c-0.19,0.13-19.48,13.15-48.78,23.78c-26.98,9.78-68.19,19.47-111.54,10.2
					C239.35,171.24,224.72,195.86,181.12,196.2L181.12,196.2z"/>
			</g>
			<circle class="st0" cx="378.54" cy="146.06" r="1.9"/>
			<circle class="st0" cx="382.35" cy="154.92" r="1.9"/>
			<circle class="st0" cx="385.64" cy="161.53" r="1.9"/>
			<circle class="st0" cx="387.96" cy="164.64" r="1.9"/>
			<path class="st0" d="M392.86,172.88c0-1.05-0.85-1.9-1.9-1.9s-1.9,0.85-1.9,1.9s0.85,1.9,1.9,1.9S392.86,173.93,392.86,172.88z"
				/>
			<circle class="st0" cx="395.63" cy="179.6" r="1.9"/>
			<path class="st0" d="M399.43,196.78c0-1.05-0.85-1.9-1.9-1.9s-1.9,0.85-1.9,1.9s0.85,1.9,1.9,1.9S399.43,197.83,399.43,196.78z"
				/>
			<circle class="st0" cx="398.24" cy="218.79" r="1.9"/>
			<circle class="st0" cx="434.34" cy="207.09" r="1.9"/>
			<circle class="st0" cx="431.07" cy="224.79" r="1.9"/>
			<circle class="st0" cx="430.54" cy="253.8" r="1.9"/>
			<circle class="st0" cx="330.11" cy="343.15" r="1.9"/>
			<path class="st0" d="M350.36,342.63c0-1.05-0.85-1.9-1.9-1.9c-1.05,0-1.9,0.85-1.9,1.9s0.85,1.9,1.9,1.9
				C349.51,344.53,350.36,343.68,350.36,342.63z"/>
			<circle class="st0" cx="363.9" cy="343.15" r="1.9"/>
			<path class="st0" d="M380.42,343.15c0-1.05-0.85-1.9-1.9-1.9s-1.9,0.85-1.9,1.9s0.85,1.9,1.9,1.9S380.42,344.2,380.42,343.15z"/>
			<circle class="st0" cx="443.57" cy="341.91" r="1.9"/>
			<path class="st0" d="M456.78,341.91c0-1.05-0.85-1.9-1.9-1.9c-1.05,0-1.9,0.85-1.9,1.9s0.85,1.9,1.9,1.9
				C455.92,343.81,456.78,342.96,456.78,341.91z"/>
			<circle class="st0" cx="469.08" cy="341.91" r="1.9"/>
			<g>
				<path class="st0" d="M142.87,439.68c39.28,12.9,105.9,26.55,200.26,18.27c0.96-0.07,64.17-4.97,118.03-10.39l7.82-23.58
					c0,0-41.13,5.8-188.11,13.03c-146.98,7.23-201.38-38.47-201.38-38.47c0.98,4.87,2.48,9.51,4.42,13.94
					C92.9,418.49,111.96,429.53,142.87,439.68z"/>
				<path class="st0" d="M286.85,462.48c-65.97,0-114.48-10.88-145.75-21.28c-26.86-8.93-45.36-18.86-55.57-25.28
					c1.16,2.3,2.45,4.54,3.86,6.72c10.41,6.27,27.77,15.21,52.9,23.5c39.38,12.99,106.2,26.74,200.88,18.44
					c0.94-0.07,62.36-4.83,115.71-10.16l1.59-4.79c-53.71,5.39-116.23,10.24-117.18,10.31
					C323.24,461.71,304.43,462.48,286.85,462.48z"/>
				<path class="st0" d="M343.25,465.58c-20.04,1.76-38.84,2.53-56.4,2.53c-65.91,0-114.35-10.87-145.59-21.25
					c-23-7.64-39.83-16-50.56-22.24c42.01,61.04,177.06,74.19,212.1,78.53c37.66,4.66,134.22,17.22,134.22,17.22l21.52-64.9
					C405.27,460.78,344.19,465.51,343.25,465.58z"/>
			</g>
		</g>
	</g>
	<g id="Layer_5">
		<g>
			<path class="st0" d="M267.37,39.23c4.12-0.33,4.78,0.56,6.95,3.03c1.39,1.59,2.54,2.15,3.23,2.34c0.76-0.3,1.29-0.39,1.29-0.39
				c1.12-1.06,2.42-0.75,2.42-0.75c0.64-0.54,1.95-0.66,1.95-0.66c-1.11,0.59-1.37,1.2-1.37,1.2c0.17,1.34-0.59,1.95-0.59,1.95
				c-0.06,0.15-0.13,0.3-0.2,0.45c0.66,0.16,2.32,0.48,4.46,0.3c2.79-0.23,4.46-0.02,5.97,3.03c1.52,3.05,2.52,6.42,2.19,9.28
				c0,0-2.26-5.79-4.48-7.71c-2.23-1.92-3.24-1.82-3.91-2.09c-1.56-0.63-2.35-0.81-3.36-1.05s-1.14-0.12-2.14,0.2l0,0
				c-2.35,2.62-5.59,2.25-6.13,2.35c-0.66,0.13-0.98,0.66-0.98,0.66c-0.37,0.89-1.69,1.78-1.69,1.78c-1.59-0.38-2.24-1.83-2.24-1.83
				c1.34-1.1,2.79-1.29,2.79-1.29c0.95-0.4,1.35-1.21,1.35-1.21c0.05-0.11,0.11-0.22,0.17-0.32c-0.07-1.36-0.68-2.89-0.68-2.89
				c-1.53-3.66-5.08-4.56-5.08-4.56c-3.92-1.27-13.21,0.16-13.21,0.16S263.26,39.56,267.37,39.23z"/>
			<path class="st0" d="M93.54,29.96c3.46-0.28,4.02,0.47,5.83,2.55c1.17,1.33,2.14,1.81,2.71,1.97c0.64-0.25,1.09-0.33,1.09-0.33
				c0.94-0.89,2.03-0.63,2.03-0.63c0.54-0.45,1.64-0.55,1.64-0.55c-0.93,0.5-1.15,1-1.15,1c0.14,1.13-0.5,1.64-0.5,1.64
				c-0.05,0.13-0.11,0.25-0.16,0.37c0.55,0.13,1.94,0.4,3.74,0.25c2.35-0.2,3.74-0.02,5.02,2.54c1.27,2.56,2.12,5.39,1.84,7.79
				c0,0-1.9-4.86-3.77-6.48s-2.72-1.53-3.28-1.75c-1.31-0.53-1.97-0.68-2.82-0.89c-0.85-0.2-0.96-0.1-1.79,0.16l0,0
				c-1.97,2.2-4.69,1.89-5.15,1.97C98.26,39.68,98,40.12,98,40.12c-0.31,0.75-1.42,1.5-1.42,1.5c-1.33-0.32-1.88-1.54-1.88-1.54
				c1.13-0.92,2.34-1.09,2.34-1.09c0.8-0.34,1.14-1.02,1.14-1.02c0.05-0.09,0.09-0.18,0.14-0.27c-0.06-1.14-0.57-2.42-0.57-2.42
				c-1.28-3.08-4.26-3.83-4.26-3.83c-3.29-1.07-11.1,0.14-11.1,0.14S90.08,30.23,93.54,29.96z"/>
			<path class="st0" d="M452.62,0.05L452.6,0l-0.04,0.05c-0.96,1.23-1.82,1.74-3.26,2.6c-0.58,0.35-1.24,0.74-2.04,1.26
				c-2.25,1.47-2.84,3.52-2.98,4.25c-0.04,0.02-0.08,0.04-0.13,0.06c-0.22,0.1-0.42,0.2-0.6,0.3c-0.87-0.55-3.04-2.05-4.42-3.89
				c-0.94-1.25-2.52-2.04-3.68-2.48c-1.44-0.55-3.05-0.88-4.43-0.9c-0.27,0-0.53,0-0.76,0.02c-0.52,0.04-0.99,0.06-1.44,0.05
				c-1.21-0.02-1.99-0.22-2.81-0.43c-0.24-0.06-0.48-0.12-0.74-0.18l-0.13-0.03l0.1,0.09c0.02,0.02,2.06,1.8,5.48,2.43
				c3.81,0.7,6.26,3.19,7.13,4.23c0.96,1.14,2.18,2.96,2.7,3.75c-0.16,0.14-0.34,0.28-0.56,0.42c-1.5,0.95-2.34,0.92-4.14,0.88
				c-0.12,0-0.25-0.01-0.38-0.01h-0.05l0.02,0.05c0.01,0.02,0.67,1.61,2.07,1.71h0.01l0.01-0.01c0.01-0.01,1.56-1.08,3.03-1.23
				c1.37-0.14,4.41-0.98,6.1-3.19c0.07-0.03,0.61-0.26,1.34-0.25c0.15,0,0.3,0.02,0.45,0.04l0.08,0.01l-0.05-0.07
				c-0.01-0.02-0.36-0.51-1.09-0.54c-0.03-0.18-0.26-1.13-1.31-1.25c0.91-1.9,2.87-3.47,2.89-3.49
				C452.93,0.87,452.64,0.08,452.62,0.05z"/>
			<path class="st0" d="M241.48,99.63v-0.11l-0.1,0.05c-2.63,1.31-4.53,1.49-7.67,1.78c-1.27,0.12-2.72,0.25-4.5,0.49
				c-5.03,0.67-7.69,3.69-8.52,4.81c-0.09,0-0.17-0.01-0.26-0.01c-0.45,0-0.87,0.01-1.26,0.03c-1.03-1.64-3.53-5.96-4.41-10.21
				c-0.59-2.89-2.66-5.51-4.28-7.2c-2.01-2.1-4.51-3.97-6.84-5.13c-0.46-0.23-0.9-0.42-1.32-0.58c-0.92-0.35-1.74-0.7-2.49-1.08
				c-2.05-1.02-3.22-1.98-4.45-3c-0.36-0.3-0.73-0.6-1.12-0.91l-0.2-0.16l0.1,0.24c0.02,0.05,2.06,4.74,7.39,8.58
				c5.94,4.29,8.11,10.52,8.76,12.99c0.72,2.71,1.34,6.82,1.59,8.57c-0.39,0.11-0.81,0.2-1.3,0.26c-3.34,0.4-4.74-0.33-7.79-1.86
				c-0.21-0.1-0.42-0.21-0.65-0.32l-0.09-0.05l-0.01,0.1c0,0.03-0.15,3.28,2.15,4.58l0.02,0.01h0.02c0.04-0.01,3.54-0.57,6.17,0.38
				c2.46,0.88,8.33,1.91,12.99-0.47c0.15,0,1.25,0.05,2.49,0.66c0.26,0.13,0.51,0.27,0.74,0.43l0.13,0.09l-0.02-0.15
				c-0.01-0.05-0.2-1.16-1.44-1.8c0.09-0.34,0.46-2.13-1.23-3.19c3.09-2.49,7.7-3.57,7.75-3.59
				C241.34,101.28,241.48,99.7,241.48,99.63z"/>
			<path class="st0" d="M372.92,108.28l-0.03-0.07l-0.05,0.06c-1.3,1.65-2.47,2.35-4.42,3.51c-0.79,0.47-1.68,1-2.76,1.7
				c-3.05,1.98-3.84,4.76-4.04,5.73c-0.06,0.03-0.11,0.05-0.17,0.08c-0.29,0.14-0.56,0.27-0.81,0.41c-1.17-0.75-4.12-2.77-6-5.25
				c-1.27-1.69-3.42-2.75-4.99-3.35c-1.95-0.74-4.14-1.18-6.01-1.22c-0.36-0.01-0.71,0-1.03,0.03c-0.71,0.06-1.34,0.08-1.95,0.07
				c-1.64-0.03-2.69-0.29-3.81-0.57c-0.32-0.08-0.66-0.17-1-0.24l-0.18-0.04l0.14,0.12c0.03,0.02,2.79,2.43,7.42,3.29
				c5.17,0.95,8.48,4.31,9.67,5.71c1.3,1.54,2.96,4,3.66,5.06c-0.21,0.19-0.46,0.38-0.76,0.57c-2.03,1.29-3.17,1.24-5.61,1.19
				c-0.16,0-0.34-0.01-0.52-0.01h-0.07l0.03,0.07c0.01,0.02,0.91,2.17,2.8,2.3h0.02l0.01-0.01c0.02-0.01,2.12-1.45,4.11-1.65
				c1.86-0.19,5.98-1.33,8.26-4.3c0.1-0.04,0.83-0.36,1.82-0.34c0.21,0,0.41,0.02,0.61,0.05l0.11,0.02l-0.06-0.09
				c-0.02-0.03-0.49-0.69-1.48-0.72c-0.05-0.25-0.36-1.52-1.78-1.69c1.23-2.56,3.89-4.68,3.92-4.71
				C373.34,109.39,372.94,108.33,372.92,108.28z"/>
		</g>
	</g>
	<g id="Layer_10">
		<path class="st0" d="M504.78,567.56c-28.23-12.42-59.11-20.15-89.19-26.49c-35.98-7.59-72.37-12.88-109-16.18
			c-33.29-3-66.76-3.21-100.01-6.5c-36.95-3.66-74.06-10.64-108.78-24.07c-34.18-13.22-67.11-33.37-87.24-64.79
			c50.06,53.46,130.65,66.26,200.27,71.58c28.18,2.15,56.44,2.64,84.58,5.33c33.19,3.18,66.2,8.49,98.52,16.76
			C431.59,532.82,472.44,545.23,504.78,567.56z"/>
		<path class="st0" d="M456.63,594.9c-76.85-39.32-164.31-51.42-249.24-57.71c43.61-3.05,87.8,0.31,130.44,10.02
			C378.66,556.51,422.2,570.35,456.63,594.9z"/>
		<path class="st0" d="M171.05,531.94C111.47,535.22,42.88,517.56,0,474.38C48.32,511.71,110.91,527.6,171.05,531.94z"/>
	</g>
</g>
</svg>
