<svg xmlns="http://www.w3.org/2000/svg" width="70.09" height="104.022" viewBox="0 0 70.09 104.022">
  <g id="cod_white" transform="translate(-83.509 0.001)">
    <path id="Path_310" data-name="Path 310" d="M149.028,4.073a4.579,4.579,0,0,0-4.31,3.047h-10.5l-8.6-5.162a13.688,13.688,0,0,0-14.111,0L102.9,7.12H92.39a4.571,4.571,0,0,0-8.881,1.524V20.833A95.818,95.818,0,0,0,107.625,84.39l-8.718,17.426a1.524,1.524,0,0,0,1.363,2.205h36.569a1.524,1.524,0,0,0,1.363-2.206L129.483,84.39a95.233,95.233,0,0,0,16.635-26.444A95.3,95.3,0,0,0,153.6,20.833V8.644a4.576,4.576,0,0,0-4.571-4.571ZM86.557,8.644a1.524,1.524,0,0,1,3.047,0,1.524,1.524,0,0,0,1.524,1.524h10.666V22.624A14.988,14.988,0,0,1,88.1,37.536a91.775,91.775,0,0,1-1.541-16.7Zm47.816,92.33H102.736l7.095-14.182q1.192,1.255,2.433,2.471a8.988,8.988,0,0,0,12.581,0q1.242-1.216,2.433-2.471ZM122.712,87.087a5.909,5.909,0,0,1-2.634,1.5V25.671a1.524,1.524,0,0,0-3.047,0V88.586a5.91,5.91,0,0,1-2.634-1.5A93.326,93.326,0,0,1,88.7,40.543a18.043,18.043,0,0,0,16.136-17.919V9.506l8.226-4.935a10.665,10.665,0,0,1,3.964-1.412V19.576a1.524,1.524,0,0,0,3.047,0V3.159a10.666,10.666,0,0,1,3.964,1.412l8.226,4.935V22.624A18.043,18.043,0,0,0,148.4,40.543,93.323,93.323,0,0,1,122.712,87.087Zm27.84-66.254a91.775,91.775,0,0,1-1.541,16.7,14.988,14.988,0,0,1-13.7-14.912V10.167h10.529A1.547,1.547,0,0,0,147.5,8.644a1.524,1.524,0,1,1,3.047,0Z" transform="translate(0 0)" fill="#fff"/>
  </g>
</svg>
