<svg xmlns="http://www.w3.org/2000/svg" width="101.526" height="109.623" viewBox="0 0 101.526 109.623">
  <path id="coil-white" d="M184.278,91.15l-2.97-80.2A4.7,4.7,0,0,0,176.6,6.416H171.57V3.108A3.111,3.111,0,0,0,168.463,0H152.423a3.111,3.111,0,0,0-3.108,3.108V6.416h-5.029a4.7,4.7,0,0,0-4.708,4.537l-.164,4.415s0,.009,0,.013l-.3,8.061s0,.008,0,.012l-.3,8.062s0,.007,0,.01l-.3,8.061s0,.008,0,.013l-.3,8.061s0,.007,0,.011l-.3,8.063s0,.006,0,.009l-.3,8.065s0,.005,0,.008l-.6,16.138s0,.006,0,.008l-.414,11.186a4.712,4.712,0,0,0,4.708,4.886h8v3.308a3.111,3.111,0,0,0,3.108,3.108h16.039a3.111,3.111,0,0,0,3.108-3.108V96.036h8a4.712,4.712,0,0,0,4.708-4.886Zm-6.185-80.845a1.705,1.705,0,0,1,.21.759l.153,4.141-36.265,6.476.185-5ZM142.077,24.756l36.491-6.516.183,4.932-36.859,6.582Zm-.3,8.073,37.085-6.622.183,4.932-37.453,6.688Zm-.3,8.073,37.679-6.728.183,4.932L141.294,45.9Zm-.3,8.073,38.273-6.835.183,4.932-38.641,6.9Zm-.3,8.073,38.867-6.941.183,4.932L140.7,62.047Zm-.3,8.073,39.462-7.047.183,4.932L140.4,70.12Zm-.3,8.073,40.056-7.153.183,4.932L140.1,78.193Zm-.3,8.073,40.65-7.259.183,4.932L139.8,86.266ZM152.323,3.108a.1.1,0,0,1,.1-.1h16.039a.1.1,0,0,1,.1.1V6.416h-16.24Zm-8.036,6.316h21.637L142.49,13.608l.094-2.544A1.7,1.7,0,0,1,144.287,9.423Zm-4.2,83.084a1.69,1.69,0,0,1-.476-1.246l.071-1.92,41.244-7.365.183,4.932-34.275,6.12h-5.52A1.69,1.69,0,0,1,140.089,92.507Zm28.473,6.837a.1.1,0,0,1-.1.1H152.423a.1.1,0,0,1-.1-.1V96.036h16.24ZM180.8,92.507a1.69,1.69,0,0,1-1.227.522H163.944l17.279-3.086.049,1.318A1.689,1.689,0,0,1,180.8,92.507Z" transform="translate(-41.687 -85.969) rotate(39)" fill="#fff"/>
</svg>
