<svg xmlns="http://www.w3.org/2000/svg" xmlns:xlink="http://www.w3.org/1999/xlink" width="622.076" height="548.064" viewBox="0 0 622.076 548.064">
  <defs>
    <clipPath id="clip-path">
      <path id="Path_377" data-name="Path 377" d="M326.657,278.246s-2.332,37.249.929,46.1,14.433,16.765,14.907,26.078,6.05,22.36,13.03,27.025,14.451,16.765,15.38,25.148,9.312,34.46,9.312,34.46,12.574-1.385,15.783-2.788,10.242-5.594,10.242-11.171-8.769-55.435-8.769-55.435l-29.357-91.3Z" transform="translate(-325.849 -276.37)" fill="#263238" stroke="#263238" stroke-linecap="round" stroke-linejoin="round" stroke-width="1"/>
    </clipPath>
    <clipPath id="clip-path-2">
      <path id="Path_391" data-name="Path 391" d="M402.147,209.158l-37.161,43.317-80.355-25.832L280.37,238.2s78.268,46.666,83.529,48.56,18.133-1.263,22.5-5.524,38.389-34.741,42.212-39.739,5.682-21.956-3.244-32.093S402.147,209.158,402.147,209.158Z" transform="translate(-280.37 -204.834)" fill="#fff" stroke="#263238" stroke-linecap="round" stroke-linejoin="round" stroke-width="1"/>
    </clipPath>
    <clipPath id="clip-path-3">
      <path id="Path_398" data-name="Path 398" d="M386.491,217.564s-5.261-14.188-5.261-18.765,9.558-13.311,9.558-21.641-7.488-26.621-26.2-25.8-25.8,7.015-27.06,14.573a106.382,106.382,0,0,1-4.156,9.979c-2.069,4.156-6.243,9.154-4.981,10.4s7.015,2.49,7.015,2.508c-.737-.158.193,15.135.824,16.643,2.175,4.788,7.436,4.91,12.557,4.91a4.314,4.314,0,0,0,1.473-.3l7.857,17.239Z" transform="translate(-328.157 -151.335)" fill="#fff" stroke="#263238" stroke-linecap="round" stroke-linejoin="round" stroke-width="1"/>
    </clipPath>
  </defs>
  <g id="Fishing-bro_1_" data-name="Fishing-bro (1)" transform="translate(-72.32 -97.342)">
    <g id="freepik--Clouds--inject-16" transform="translate(238.519 136.125)">
      <path id="Path_312" data-name="Path 312" d="M341.321,166.687c-7.822-4.261-11.382-.719-14.223-4.261s7.821-12.8-13.5-22.044c0,0-1.42-19.9-30.567-20.624s-21.4,19.9-29.164,24.885-9.944-2.841-17.765,2.14-4.262,14.924-10.663,16.345-14.942-6.4-22.8-1.421-7.8,9.242-11.364,9.242-10.663-2.841-14.942,0-9.242,6.4-9.242,6.4H347S349.142,170.949,341.321,166.687Z" transform="translate(-167.09 -119.74)" fill="#fff"/>
      <path id="Path_313" data-name="Path 313" d="M341.321,166.687c-7.822-4.261-11.382-.719-14.223-4.261s7.821-12.8-13.5-22.044c0,0-1.42-19.9-30.567-20.624s-21.4,19.9-29.164,24.885-9.944-2.841-17.765,2.14-4.262,14.924-10.663,16.345-14.942-6.4-22.8-1.421-7.8,9.242-11.364,9.242-10.663-2.841-14.942,0-9.242,6.4-9.242,6.4H347S349.142,170.949,341.321,166.687Z" transform="translate(-167.09 -119.74)" fill="#fff" opacity="0.5"/>
      <path id="Path_314" data-name="Path 314" d="M369.393,185.83c-5.261-2.911-7.734-.491-9.663-2.911s5.261-8.769-9.189-14.994c0,0-.982-13.539-20.8-14.03s-14.5,13.539-19.817,16.923-6.769-1.929-12.1,1.456-2.894,10.154-7.243,11.118-10.154-4.349-15.485-.965-5.261,6.278-7.734,6.278-7.243-1.929-10.154,0-6.278,4.349-6.278,4.349H373.269S374.707,188.724,369.393,185.83Z" transform="translate(-103.899 -94.006)" fill="#fff"/>
      <path id="Path_315" data-name="Path 315" d="M369.393,185.83c-5.261-2.911-7.734-.491-9.663-2.911s5.261-8.769-9.189-14.994c0,0-.982-13.539-20.8-14.03s-14.5,13.539-19.817,16.923-6.769-1.929-12.1,1.456-2.894,10.154-7.243,11.118-10.154-4.349-15.485-.965-5.261,6.278-7.734,6.278-7.243-1.929-10.154,0-6.278,4.349-6.278,4.349H373.269S374.707,188.724,369.393,185.83Z" transform="translate(-103.899 -94.006)" fill="#fff" opacity="0.5"/>
      <path id="Path_316" data-name="Path 316" d="M324.393,261.83c-5.261-2.911-7.734-.491-9.663-2.911s5.261-8.769-9.189-14.994c0,0-.982-13.539-20.8-14.03s-14.5,13.539-19.817,16.923-6.769-1.929-12.1,1.456-2.894,10.154-7.243,11.118-10.154-4.349-15.485-.965-5.261,6.278-7.734,6.278-7.243-1.929-10.154,0-6.278,4.349-6.278,4.349H328.269S329.707,264.724,324.393,261.83Z" transform="translate(-137.816 -36.724)" fill="#fff"/>
      <path id="Path_317" data-name="Path 317" d="M324.393,261.83c-5.261-2.911-7.734-.491-9.663-2.911s5.261-8.769-9.189-14.994c0,0-.982-13.539-20.8-14.03s-14.5,13.539-19.817,16.923-6.769-1.929-12.1,1.456-2.894,10.154-7.243,11.118-10.154-4.349-15.485-.965-5.261,6.278-7.734,6.278-7.243-1.929-10.154,0-6.278,4.349-6.278,4.349H328.269S329.707,264.724,324.393,261.83Z" transform="translate(-137.816 -36.724)" fill="#fff" opacity="0.5"/>
      <g id="Group_136" data-name="Group 136" opacity="0.5">
        <path id="Path_318" data-name="Path 318" d="M341.321,166.687c-7.822-4.261-11.382-.719-14.223-4.261s7.821-12.8-13.5-22.044c0,0-1.42-19.9-30.567-20.624s-21.4,19.9-29.164,24.885-9.944-2.841-17.765,2.14-4.262,14.924-10.663,16.345-14.942-6.4-22.8-1.421-7.8,9.242-11.364,9.242-10.663-2.841-14.942,0-9.242,6.4-9.242,6.4H347S349.142,170.949,341.321,166.687Z" transform="translate(-167.09 -119.74)" fill="#fff"/>
        <path id="Path_319" data-name="Path 319" d="M341.321,166.687c-7.822-4.261-11.382-.719-14.223-4.261s7.821-12.8-13.5-22.044c0,0-1.42-19.9-30.567-20.624s-21.4,19.9-29.164,24.885-9.944-2.841-17.765,2.14-4.262,14.924-10.663,16.345-14.942-6.4-22.8-1.421-7.8,9.242-11.364,9.242-10.663-2.841-14.942,0-9.242,6.4-9.242,6.4H347S349.142,170.949,341.321,166.687Z" transform="translate(-167.09 -119.74)" fill="#fff" opacity="0.5"/>
        <path id="Path_320" data-name="Path 320" d="M369.393,185.83c-5.261-2.911-7.734-.491-9.663-2.911s5.261-8.769-9.189-14.994c0,0-.982-13.539-20.8-14.03s-14.5,13.539-19.817,16.923-6.769-1.929-12.1,1.456-2.894,10.154-7.243,11.118-10.154-4.349-15.485-.965-5.261,6.278-7.734,6.278-7.243-1.929-10.154,0-6.278,4.349-6.278,4.349H373.269S374.707,188.724,369.393,185.83Z" transform="translate(-103.899 -94.006)" fill="#fff"/>
        <path id="Path_321" data-name="Path 321" d="M369.393,185.83c-5.261-2.911-7.734-.491-9.663-2.911s5.261-8.769-9.189-14.994c0,0-.982-13.539-20.8-14.03s-14.5,13.539-19.817,16.923-6.769-1.929-12.1,1.456-2.894,10.154-7.243,11.118-10.154-4.349-15.485-.965-5.261,6.278-7.734,6.278-7.243-1.929-10.154,0-6.278,4.349-6.278,4.349H373.269S374.707,188.724,369.393,185.83Z" transform="translate(-103.899 -94.006)" fill="#fff" opacity="0.5"/>
        <path id="Path_322" data-name="Path 322" d="M324.393,261.83c-5.261-2.911-7.734-.491-9.663-2.911s5.261-8.769-9.189-14.994c0,0-.982-13.539-20.8-14.03s-14.5,13.539-19.817,16.923-6.769-1.929-12.1,1.456-2.894,10.154-7.243,11.118-10.154-4.349-15.485-.965-5.261,6.278-7.734,6.278-7.243-1.929-10.154,0-6.278,4.349-6.278,4.349H328.269S329.707,264.724,324.393,261.83Z" transform="translate(-137.816 -36.724)" fill="#fff"/>
        <path id="Path_323" data-name="Path 323" d="M324.393,261.83c-5.261-2.911-7.734-.491-9.663-2.911s5.261-8.769-9.189-14.994c0,0-.982-13.539-20.8-14.03s-14.5,13.539-19.817,16.923-6.769-1.929-12.1,1.456-2.894,10.154-7.243,11.118-10.154-4.349-15.485-.965-5.261,6.278-7.734,6.278-7.243-1.929-10.154,0-6.278,4.349-6.278,4.349H328.269S329.707,264.724,324.393,261.83Z" transform="translate(-137.816 -36.724)" fill="#fff" opacity="0.5"/>
      </g>
    </g>
    <g id="freepik--Trees--inject-16" transform="translate(76.897 232.04)">
      <path id="Path_324" data-name="Path 324" d="M378.081,409.776h59.626c-1.157-7.3-5.84-6.015-6.454-17.309-.316-5.7,4.945-12.732,4.49-20.22-.368-6.156-6.436-12.469-6.91-19.519-.421-6.348,4.753-13.4,4.244-20.255-.473-6.489-6.629-12.7-7.173-19.431s4.542-13.7,3.946-20.343-6.857-12.732-7.523-19.291,4.226-14.03,3.507-20.413c-.789-6.839-7.243-12.732-8.12-19.045-.982-7.015,3.6-14.5,2.525-20.553-1.315-7.418-8.207-12.785-9.663-18.256-2.718-10.207-2.368-20.027-5.577-20.676s-4.191,8.961-6.769,19.729c-1.3,5.4-8.049,10.891-9.154,18.309-.912,6.015,3.858,13.328,3.087,20.308-.7,6.261-7.015,12.276-7.594,19.063-.579,6.4,4.525,13.451,4.016,20.15s-6.594,12.7-7.015,19.291,4.84,13.521,4.489,20.045-6.366,12.977-6.664,19.414c-.333,6.8,5.033,13.661,4.77,19.957-.281,7.015-6.191,13.4-6.419,19.5-.263,7.418,5.261,14.275,5.016,19.9-.351,12.276-5.963,9.733-6.173,19.589Z" transform="translate(152.433 -174.432)" fill="#fff"/>
      <line id="Line_30" data-name="Line 30" y2="212.953" transform="translate(556.118 19.638)" fill="none" stroke="#263238" stroke-miterlimit="10" stroke-width="1"/>
      <path id="Path_325" data-name="Path 325" d="M404.932,199.31l-9.716,8.383L387.29,197.1" transform="translate(160.498 -157.347)" fill="none" stroke="#263238" stroke-miterlimit="10" stroke-width="1"/>
      <path id="Path_326" data-name="Path 326" d="M404.932,220.45l-9.716,8.383L387.29,218.24" transform="translate(160.498 -141.414)" fill="none" stroke="#263238" stroke-miterlimit="10" stroke-width="1"/>
      <path id="Path_327" data-name="Path 327" d="M404.932,240.312l-9.716,8.4L387.29,238.12" transform="translate(160.498 -126.43)" fill="none" stroke="#263238" stroke-miterlimit="10" stroke-width="1"/>
      <path id="Path_328" data-name="Path 328" d="M404.932,263.98l-9.716,8.383L387.29,261.77" transform="translate(160.498 -108.605)" fill="none" stroke="#263238" stroke-miterlimit="10" stroke-width="1"/>
      <path id="Path_329" data-name="Path 329" d="M404.932,287.88l-9.716,8.383L387.29,285.67" transform="translate(160.498 -90.592)" fill="none" stroke="#263238" stroke-miterlimit="10" stroke-width="1"/>
      <path id="Path_330" data-name="Path 330" d="M105.941,409.776h59.626c-1.14-7.3-5.84-6.015-6.454-17.309-.316-5.7,4.963-12.732,4.507-20.22-.386-6.156-6.454-12.469-6.927-19.519-.421-6.348,4.753-13.4,4.261-20.255-.491-6.489-6.647-12.7-7.19-19.431s4.56-13.7,3.946-20.343-6.857-12.732-7.523-19.291,4.226-14.03,3.507-20.413c-.789-6.839-7.243-12.732-8.12-19.045-.965-7.015,3.6-14.5,2.525-20.553-1.3-7.418-8.207-12.785-9.663-18.256-2.7-10.207-2.368-20.027-5.559-20.676s-4.191,8.961-6.787,19.729c-1.3,5.4-8.05,10.891-9.154,18.309-.912,6.015,3.876,13.328,3.087,20.308-.7,6.261-7.015,12.276-7.594,19.063-.579,6.4,4.525,13.451,4.016,20.15s-6.576,12.7-7.015,19.291,4.84,13.521,4.489,20.045-6.366,12.977-6.664,19.414c-.333,6.8,5.033,13.661,4.77,19.957-.281,7.015-6.191,13.4-6.4,19.5-.263,7.418,5.261,14.275,5.016,19.9-.368,12.276-5.98,9.733-6.191,19.589Z" transform="translate(-52.681 -174.432)" fill="#fff"/>
      <line id="Line_31" data-name="Line 31" y2="212.953" transform="translate(78.847 19.638)" fill="none" stroke="#263238" stroke-miterlimit="10" stroke-width="1"/>
      <path id="Path_331" data-name="Path 331" d="M132.782,199.31l-9.7,8.383L115.14,197.1" transform="translate(-44.623 -157.347)" fill="none" stroke="#263238" stroke-miterlimit="10" stroke-width="1"/>
      <path id="Path_332" data-name="Path 332" d="M132.782,220.45l-9.7,8.383L115.14,218.24" transform="translate(-44.623 -141.414)" fill="none" stroke="#263238" stroke-miterlimit="10" stroke-width="1"/>
      <path id="Path_333" data-name="Path 333" d="M132.782,240.312l-9.7,8.4L115.14,238.12" transform="translate(-44.623 -126.43)" fill="none" stroke="#263238" stroke-miterlimit="10" stroke-width="1"/>
      <path id="Path_334" data-name="Path 334" d="M132.782,263.98l-9.7,8.383L115.14,261.77" transform="translate(-44.623 -108.605)" fill="none" stroke="#263238" stroke-miterlimit="10" stroke-width="1"/>
      <path id="Path_335" data-name="Path 335" d="M132.782,287.88l-9.7,8.383L115.14,285.67" transform="translate(-44.623 -90.592)" fill="none" stroke="#263238" stroke-miterlimit="10" stroke-width="1"/>
      <path id="Path_336" data-name="Path 336" d="M284.79,384.177h44.544c-.859-5.454-4.367-4.49-4.823-12.925-.228-4.261,3.7-9.523,3.367-15.1-.281-4.595-4.823-9.312-5.173-14.573-.316-4.753,3.507-10.031,3.174-15.134-.351-4.84-4.945-9.488-5.366-14.521s3.4-10.224,2.946-15.187-5.121-9.523-5.612-14.415,3.157-10.522,2.6-15.24c-.6-5.1-5.419-9.523-6.068-14.223-.737-5.261,2.683-10.838,1.894-15.362-.982-5.542-6.138-9.54-7.225-13.644-2.034-7.611-1.754-14.942-4.156-15.433s-3.139,6.7-5.068,14.731c-.964,4.051-6.015,8.137-6.839,13.679-.666,4.489,2.894,9.961,2.315,15.17-.526,4.682-5.261,9.172-5.682,14.24-.438,4.788,3.385,10.049,3,15.047s-4.91,9.488-5.261,14.415,3.613,10.084,3.35,14.959-4.753,9.7-4.981,14.5c-.246,5.086,3.753,10.207,3.507,14.906-.21,5.261-4.63,10.014-4.788,14.573-.193,5.542,3.876,10.645,3.753,14.871-.281,9.154-4.472,7.26-4.612,14.626Z" transform="translate(82.331 -148.833)" fill="#fff"/>
      <line id="Line_32" data-name="Line 32" y2="159.061" transform="translate(386.236 74.23)" fill="none" stroke="#263238" stroke-miterlimit="10" stroke-width="1"/>
      <path id="Path_337" data-name="Path 337" d="M304.808,226.979l-7.26,6.261-5.928-7.909" transform="translate(88.391 -136.07)" fill="none" stroke="#263238" stroke-miterlimit="10" stroke-width="1"/>
      <path id="Path_338" data-name="Path 338" d="M304.808,242.768l-7.26,6.261-5.928-7.909" transform="translate(88.391 -124.169)" fill="none" stroke="#263238" stroke-miterlimit="10" stroke-width="1"/>
      <path id="Path_339" data-name="Path 339" d="M304.808,257.608l-7.26,6.261-5.928-7.909" transform="translate(88.391 -112.984)" fill="none" stroke="#263238" stroke-miterlimit="10" stroke-width="1"/>
      <path id="Path_340" data-name="Path 340" d="M304.808,275.279l-7.26,6.261-5.928-7.909" transform="translate(88.391 -99.666)" fill="none" stroke="#263238" stroke-miterlimit="10" stroke-width="1"/>
      <path id="Path_341" data-name="Path 341" d="M304.808,293.129l-7.26,6.261-5.928-7.909" transform="translate(88.391 -86.213)" fill="none" stroke="#263238" stroke-miterlimit="10" stroke-width="1"/>
      <path id="Path_342" data-name="Path 342" d="M256.79,384.177h44.544c-.859-5.454-4.367-4.49-4.823-12.925-.228-4.261,3.7-9.523,3.367-15.1-.281-4.595-4.823-9.312-5.173-14.573-.316-4.753,3.507-10.031,3.174-15.134-.351-4.84-4.945-9.488-5.366-14.521s3.4-10.224,2.946-15.187-5.121-9.523-5.612-14.415,3.157-10.522,2.6-15.24c-.6-5.1-5.419-9.523-6.068-14.223-.737-5.261,2.683-10.838,1.894-15.362-.982-5.542-6.138-9.54-7.225-13.644-2.034-7.611-1.754-14.942-4.156-15.433s-3.139,6.7-5.068,14.731c-.964,4.051-6.015,8.137-6.839,13.679-.666,4.489,2.894,9.961,2.315,15.17-.526,4.682-5.261,9.172-5.682,14.24-.438,4.788,3.385,10.049,3,15.047s-4.91,9.488-5.261,14.415,3.613,10.084,3.35,14.959-4.753,9.7-4.981,14.5c-.246,5.086,3.753,10.207,3.507,14.906-.21,5.261-4.63,10.014-4.788,14.573-.193,5.542,3.876,10.645,3.753,14.871-.281,9.154-4.472,7.26-4.612,14.626Z" transform="translate(61.227 -148.833)" fill="#fff"/>
      <line id="Line_33" data-name="Line 33" y2="159.061" transform="translate(337.133 74.23)" fill="none" stroke="#263238" stroke-miterlimit="10" stroke-width="1"/>
      <path id="Path_343" data-name="Path 343" d="M276.808,226.979l-7.26,6.261-5.928-7.909" transform="translate(67.287 -136.07)" fill="none" stroke="#263238" stroke-miterlimit="10" stroke-width="1"/>
      <path id="Path_344" data-name="Path 344" d="M276.808,242.768l-7.26,6.261-5.928-7.909" transform="translate(67.287 -124.169)" fill="none" stroke="#263238" stroke-miterlimit="10" stroke-width="1"/>
      <path id="Path_345" data-name="Path 345" d="M276.808,257.608l-7.26,6.261-5.928-7.909" transform="translate(67.287 -112.984)" fill="none" stroke="#263238" stroke-miterlimit="10" stroke-width="1"/>
      <path id="Path_346" data-name="Path 346" d="M276.808,275.279l-7.26,6.261-5.928-7.909" transform="translate(67.287 -99.666)" fill="none" stroke="#263238" stroke-miterlimit="10" stroke-width="1"/>
      <path id="Path_347" data-name="Path 347" d="M276.808,293.129l-7.26,6.261-5.928-7.909" transform="translate(67.287 -86.213)" fill="none" stroke="#263238" stroke-miterlimit="10" stroke-width="1"/>
      <path id="Path_348" data-name="Path 348" d="M207.468,384.177h44.527c-.842-5.454-4.349-4.49-4.805-12.925-.245-4.261,3.7-9.523,3.35-15.1-.281-4.595-4.805-9.312-5.156-14.573-.333-4.753,3.507-10.031,3.174-15.134-.368-4.84-4.963-9.488-5.366-14.521s3.4-10.224,2.946-15.187-5.121-9.523-5.629-14.415,3.174-10.522,2.613-15.24c-.6-5.1-5.419-9.523-6.068-14.223-.737-5.261,2.683-10.838,1.876-15.362-.982-5.542-6.138-9.54-7.225-13.644-2.017-7.611-1.754-14.942-4.156-15.433s-3.122,6.7-5.051,14.731c-.982,4.051-6.015,8.137-6.839,13.679-.684,4.489,2.894,9.961,2.3,15.17-.526,4.682-5.261,9.172-5.664,14.24-.438,4.788,3.367,10.049,3,15.047s-4.928,9.488-5.261,14.415,3.63,10.084,3.35,14.959-4.753,9.7-4.981,14.5c-.228,5.086,3.77,10.207,3.507,14.906-.21,5.261-4.63,10.014-4.788,14.573-.193,5.542,3.858,10.645,3.735,14.871-.263,9.154-4.454,7.26-4.612,14.626Z" transform="translate(24.039 -148.833)" fill="#fff"/>
      <line id="Line_34" data-name="Line 34" y2="159.061" transform="translate(250.622 74.23)" fill="none" stroke="#263238" stroke-miterlimit="10" stroke-width="1"/>
      <path id="Path_349" data-name="Path 349" d="M227.478,226.979l-7.26,6.261-5.928-7.909" transform="translate(30.107 -136.07)" fill="none" stroke="#263238" stroke-miterlimit="10" stroke-width="1"/>
      <path id="Path_350" data-name="Path 350" d="M227.478,242.768l-7.26,6.261-5.928-7.909" transform="translate(30.107 -124.169)" fill="none" stroke="#263238" stroke-miterlimit="10" stroke-width="1"/>
      <path id="Path_351" data-name="Path 351" d="M227.478,257.608l-7.26,6.261-5.928-7.909" transform="translate(30.107 -112.984)" fill="none" stroke="#263238" stroke-miterlimit="10" stroke-width="1"/>
      <path id="Path_352" data-name="Path 352" d="M227.478,275.279l-7.26,6.261-5.928-7.909" transform="translate(30.107 -99.666)" fill="none" stroke="#263238" stroke-miterlimit="10" stroke-width="1"/>
      <path id="Path_353" data-name="Path 353" d="M227.478,293.129l-7.26,6.261-5.928-7.909" transform="translate(30.107 -86.213)" fill="none" stroke="#263238" stroke-miterlimit="10" stroke-width="1"/>
      <path id="Path_354" data-name="Path 354" d="M145.285,364.07h37.407c-.719-4.577-3.665-3.77-4.051-10.855-.193-3.507,3.1-7.979,2.823-12.679-.245-3.858-4.051-7.822-4.349-12.276-.263-4,2.981-8.418,2.666-12.714s-4.156-7.962-4.489-12.188,2.841-8.576,2.473-12.749-4.3-7.979-4.717-12.1,2.648-8.769,2.175-12.8-4.542-7.979-5.086-11.925c-.614-4.4,2.245-9.1,1.578-12.907-.824-4.647-5.156-8.014-6.068-11.434-1.754-6.4-1.473-12.557-3.507-12.96s-2.631,5.612-4.244,12.364c-.807,3.385-5.051,6.822-5.752,11.487-.561,3.77,2.438,8.348,1.947,12.732-.438,3.911-4.384,7.681-4.77,11.943s2.841,8.435,2.525,12.627-4.121,7.962-4.4,12.1,3.051,8.488,2.823,12.574-4,8.137-4.191,12.171,3.174,8.558,3,12.521c-.175,4.384-3.876,8.4-4.016,12.276-.175,4.647,3.244,8.944,3.139,12.486-.228,7.681-3.735,6.085-3.876,12.276Z" transform="translate(-22.63 -142.756)" fill="#fff"/>
      <line id="Line_35" data-name="Line 35" y2="133.545" transform="translate(138.718 86.05)" fill="none" stroke="#263238" stroke-miterlimit="10" stroke-width="1"/>
      <path id="Path_355" data-name="Path 355" d="M162.123,232.085l-6.1,5.244L151.04,230.7" transform="translate(-17.565 -132.023)" fill="none" stroke="#263238" stroke-miterlimit="10" stroke-width="1"/>
      <path id="Path_356" data-name="Path 356" d="M162.123,245.335l-6.1,5.261-4.981-6.647" transform="translate(-17.565 -122.036)" fill="none" stroke="#263238" stroke-miterlimit="10" stroke-width="1"/>
      <path id="Path_357" data-name="Path 357" d="M162.123,257.788l-6.1,5.261-4.981-6.629" transform="translate(-17.565 -112.638)" fill="none" stroke="#263238" stroke-miterlimit="10" stroke-width="1"/>
      <path id="Path_358" data-name="Path 358" d="M162.123,272.635l-6.1,5.244-4.981-6.629" transform="translate(-17.565 -101.46)" fill="none" stroke="#263238" stroke-miterlimit="10" stroke-width="1"/>
      <path id="Path_359" data-name="Path 359" d="M162.123,287.608l-6.1,5.261-4.981-6.629" transform="translate(-17.565 -90.162)" fill="none" stroke="#263238" stroke-miterlimit="10" stroke-width="1"/>
      <path id="Path_360" data-name="Path 360" d="M177.765,401.281h54.646c-1.052-6.682-5.349-5.507-5.91-15.783-.281-5.261,4.542-11.68,4.121-18.519-.351-5.647-5.91-11.434-6.348-17.888-.386-5.84,4.367-12.276,3.911-18.572-.438-5.945-6.085-11.645-6.576-17.8s4.156-12.557,3.613-18.642-6.3-11.68-6.892-17.677,3.876-12.8,3.174-18.712c-.719-6.261-6.629-11.662-7.436-17.432-.894-6.436,3.3-13.293,2.315-18.852-1.21-6.787-7.523-11.715-8.856-16.73-2.49-9.347-2.175-18.344-5.1-18.94s-3.911,8.137-6.208,18.028c-1.193,4.963-7.383,9.979-8.4,16.783-.824,5.507,3.507,12.276,2.841,18.607-.649,5.735-6.4,11.241-7.015,17.537-.526,5.857,4.139,12.276,3.683,18.449s-6.033,11.645-6.419,17.677,4.437,12.4,4.1,18.361-5.787,11.838-6.05,17.712c-.3,6.226,4.612,12.521,4.367,18.291-.263,6.4-5.682,12.276-5.875,17.87-.246,6.8,4.753,13.065,4.595,18.239-.333,11.241-5.472,8.909-5.664,17.94Z" transform="translate(1.534 -165.937)" fill="#fff"/>
      <line id="Line_36" data-name="Line 36" y2="195.135" transform="translate(202.764 37.683)" fill="none" stroke="#263238" stroke-miterlimit="10" stroke-width="1"/>
      <path id="Path_361" data-name="Path 361" d="M202.359,208.457l-8.891,7.681-7.278-9.7" transform="translate(8.927 -150.308)" fill="none" stroke="#263238" stroke-miterlimit="10" stroke-width="1"/>
      <path id="Path_362" data-name="Path 362" d="M202.359,227.834l-8.891,7.681L186.19,225.8" transform="translate(8.927 -135.716)" fill="none" stroke="#263238" stroke-miterlimit="10" stroke-width="1"/>
      <path id="Path_363" data-name="Path 363" d="M202.359,246.037l-8.891,7.681-7.278-9.7" transform="translate(8.927 -121.984)" fill="none" stroke="#263238" stroke-miterlimit="10" stroke-width="1"/>
      <path id="Path_364" data-name="Path 364" d="M202.359,267.707l-8.891,7.7-7.278-9.716" transform="translate(8.927 -105.651)" fill="none" stroke="#263238" stroke-miterlimit="10" stroke-width="1"/>
      <path id="Path_365" data-name="Path 365" d="M202.359,289.617l-8.891,7.681-7.278-9.7" transform="translate(8.927 -89.137)" fill="none" stroke="#263238" stroke-miterlimit="10" stroke-width="1"/>
      <path id="Path_366" data-name="Path 366" d="M692.358,325.78c.193-9.523,0-19.2-.684-28.971l-1.754,1.263-9.295-6.682-9.312,6.7-9.295-6.682-9.277,6.682-9.295-6.682-9.277,6.682-9.295-6.682-9.295,6.682-9.277-6.682-9.295,6.682-9.277-6.682-9.365,6.682-9.295-6.682-9.277,6.682-9.295-6.682-9.277,6.682-9.277-6.682-9.295,6.682-9.172-6.682-9.295,6.682-9.277-6.682-9.295,6.682-9.277-6.682-9.277,6.682-9.295-6.682-9.277,6.682-9.295-6.682-9.277,6.682-9.382-6.682-9.277,6.682-9.277-6.682-9.295,6.682-9.277-6.682-9.277,6.682-9.295-6.682-9.189,6.682-9.295-6.682-9.277,6.682-9.277-6.682-9.295,6.682-9.277-6.682-9.277,6.682-9.277-6.682-9.295,6.682-9.277-6.682-9.4,6.682-9.295-6.682-9.277,6.682-9.277-6.682-9.277,6.682-9.295-6.682L207,298.089l-9.189-6.682-9.277,6.682-9.295-6.682-9.277,6.682-9.277-6.682-9.277,6.682-9.277-6.682-9.295,6.682-9.277-6.682-9.277,6.682-9.277-6.682-9.277,6.682-8.769-6.331A204.033,204.033,0,0,0,74.93,325.78Z" transform="translate(-74.93 -86.28)" fill="#fff"/>
      <path id="Path_367" data-name="Path 367" d="M692.358,325.78c.193-9.523,0-19.2-.684-28.971l-1.754,1.263-9.295-6.682-9.312,6.7-9.295-6.682-9.277,6.682-9.295-6.682-9.277,6.682-9.295-6.682-9.295,6.682-9.277-6.682-9.295,6.682-9.277-6.682-9.365,6.682-9.295-6.682-9.277,6.682-9.295-6.682-9.277,6.682-9.277-6.682-9.295,6.682-9.172-6.682-9.295,6.682-9.277-6.682-9.295,6.682-9.277-6.682-9.277,6.682-9.295-6.682-9.277,6.682-9.295-6.682-9.277,6.682-9.382-6.682-9.277,6.682-9.277-6.682-9.295,6.682-9.277-6.682-9.277,6.682-9.295-6.682-9.189,6.682-9.295-6.682-9.277,6.682-9.277-6.682-9.295,6.682-9.277-6.682-9.277,6.682-9.277-6.682-9.295,6.682-9.277-6.682-9.4,6.682-9.295-6.682-9.277,6.682-9.277-6.682-9.277,6.682-9.295-6.682L207,298.089l-9.189-6.682-9.277,6.682-9.295-6.682-9.277,6.682-9.277-6.682-9.277,6.682-9.277-6.682-9.295,6.682-9.277-6.682-9.277,6.682-9.277-6.682-9.277,6.682-8.769-6.331A204.033,204.033,0,0,0,74.93,325.78Z" transform="translate(-74.93 -86.28)" opacity="0.1"/>
    </g>
    <g id="freepik--Lake--inject-16" transform="translate(72.32 454.003)">
      <path id="Path_368" data-name="Path 368" d="M110.06,444.8c79.759,85.932,177.668,30.164,261.057,25.727,70.148-3.735,140.945,23.71,210.831,13.837,66.378-9.382,100.891-63.975,109.922-133.282A309.95,309.95,0,0,0,694.15,301H82.281C65.656,347.438,66.656,397.927,110.06,444.8Z" transform="translate(-72.32 -301)" fill="#fff"/>
      <path id="Path_369" data-name="Path 369" d="M110.06,444.8c79.759,85.932,177.668,30.164,261.057,25.727,70.148-3.735,140.945,23.71,210.831,13.837,66.378-9.382,100.891-63.975,109.922-133.282A309.95,309.95,0,0,0,694.15,301H82.281C65.656,347.438,66.656,397.927,110.06,444.8Z" transform="translate(-72.32 -301)" fill="#fff" opacity="0.5"/>
      <line id="Line_37" data-name="Line 37" x2="162.323" transform="translate(148.171 20.641)" fill="none" stroke="#fff" stroke-linecap="round" stroke-linejoin="round" stroke-width="1"/>
      <line id="Line_38" data-name="Line 38" x1="104.802" transform="translate(263.197 29.585)" fill="none" stroke="#fff" stroke-linecap="round" stroke-linejoin="round" stroke-width="1"/>
      <line id="Line_39" data-name="Line 39" x2="237.733" transform="translate(108.537 53.874)" fill="none" stroke="#fff" stroke-linecap="round" stroke-linejoin="round" stroke-width="1"/>
      <line id="Line_40" data-name="Line 40" x1="200.659" transform="translate(394.847 73.042)" fill="none" stroke="#fff" stroke-linecap="round" stroke-linejoin="round" stroke-width="1"/>
      <line id="Line_41" data-name="Line 41" x2="98.401" transform="translate(309.214 87.107)" fill="none" stroke="#fff" stroke-linecap="round" stroke-linejoin="round" stroke-width="1"/>
      <line id="Line_42" data-name="Line 42" x2="113.745" transform="translate(93.21 140.788)" fill="none" stroke="#fff" stroke-linecap="round" stroke-linejoin="round" stroke-width="1"/>
      <line id="Line_43" data-name="Line 43" x1="52.418" transform="translate(192.89 158.676)" fill="none" stroke="#fff" stroke-linecap="round" stroke-linejoin="round" stroke-width="1"/>
      <line id="Line_44" data-name="Line 44" x2="28.112" transform="translate(364.175 11.697)" fill="none" stroke="#fff" stroke-linecap="round" stroke-linejoin="round" stroke-width="1"/>
      <line id="Line_45" data-name="Line 45" x1="26.849" transform="translate(572.498 21.921)" fill="none" stroke="#fff" stroke-linecap="round" stroke-linejoin="round" stroke-width="1"/>
      <line id="Line_46" data-name="Line 46" x1="138.052" transform="translate(439.567 34.706)" fill="none" stroke="#fff" stroke-linecap="round" stroke-linejoin="round" stroke-width="1"/>
      <line id="Line_47" data-name="Line 47" x2="44.737" transform="translate(109.817 30.865)" fill="none" stroke="#fff" stroke-linecap="round" stroke-linejoin="round" stroke-width="1"/>
      <line id="Line_48" data-name="Line 48" x2="25.569" transform="translate(31.848 19.361)" fill="none" stroke="#fff" stroke-linecap="round" stroke-linejoin="round" stroke-width="1"/>
      <line id="Line_49" data-name="Line 49" x2="26.849" transform="translate(12.68 29.585)" fill="none" stroke="#fff" stroke-linecap="round" stroke-linejoin="round" stroke-width="1"/>
    </g>
    <g id="freepik--Character--inject-16" transform="translate(104.483 98)">
      <path id="Path_370" data-name="Path 370" d="M163.38,98s19.5,44.72,66.641,60.45c0,0,13.556,53.383,57.206,61.38,0,0,2.718,42.966,45.333,55.5L357.9,310.2" transform="translate(-35.85 -98)" fill="none" stroke="#263238" stroke-linecap="round" stroke-linejoin="round" stroke-width="1"/>
      <ellipse id="Ellipse_16" data-name="Ellipse 16" cx="41.563" cy="12.574" rx="41.563" ry="12.574" transform="translate(0 455.578)" fill="none" stroke="#fff" stroke-linecap="round" stroke-linejoin="round" stroke-width="1"/>
      <ellipse id="Ellipse_17" data-name="Ellipse 17" cx="29.462" cy="8.909" rx="29.462" ry="8.909" transform="translate(12.101 459.243)" fill="none" stroke="#fff" stroke-linecap="round" stroke-linejoin="round" stroke-width="1"/>
      <line id="Line_50" data-name="Line 50" x1="85.967" y2="468.152" transform="translate(41.563)" fill="none" stroke="#263238" stroke-linecap="round" stroke-linejoin="round" stroke-width="1"/>
      <path id="Path_371" data-name="Path 371" d="M316.691,242.553l-8.014-5.717-4.349-5.8a7.909,7.909,0,0,0-7.857-2.964l-3.507.579a4.261,4.261,0,0,0-3.63,4.454,1.456,1.456,0,0,0,.316.894,9.751,9.751,0,0,1,1.228,4,23.9,23.9,0,0,0,3.069,6.471c1.666,1.947,9.593,1.754,9.593,1.754l12.416,7.015Z" transform="translate(59.076 -0.085)" fill="#fff" stroke="#263238" stroke-linecap="round" stroke-linejoin="round" stroke-width="1"/>
      <path id="Path_372" data-name="Path 372" d="M304.434,249l-.684,14.977s34.723,16.678,43.229,17.362,18.73-3.4,21.044-4.437,33.022-27.235,34.373-33.32-2.367-24.166-11.908-26.9-20.431,4.086-24.166,6.471-23.149,33.32-23.149,33.32Z" transform="translate(69.948 -9.027)" fill="#fff" stroke="#263238" stroke-linecap="round" stroke-linejoin="round" stroke-width="1"/>
      <path id="Path_373" data-name="Path 373" d="M303.118,237.914a11.417,11.417,0,1,1-3.344-8.09,11.434,11.434,0,0,1,3.344,8.09Z" transform="translate(52.235 -1.164)" fill="#fff" stroke="#263238" stroke-linecap="round" stroke-linejoin="round" stroke-width="1"/>
      <path id="Path_374" data-name="Path 374" d="M403.55,361.337c-20.1-27.551-164.8-223.7-240.17-263.337,0,0,129.161,112.15,234.418,267.388a3.508,3.508,0,0,0,4.612,1.1h0a3.507,3.507,0,0,0,1.14-5.156Z" transform="translate(-35.85 -98)" fill="#263238" stroke="#263238" stroke-linecap="round" stroke-linejoin="round" stroke-width="1"/>
      <ellipse id="Ellipse_18" data-name="Ellipse 18" cx="64.045" cy="19.378" rx="64.045" ry="19.378" transform="translate(404.405 448.774)" fill="none" stroke="#fff" stroke-linecap="round" stroke-linejoin="round" stroke-width="1"/>
      <ellipse id="Ellipse_19" data-name="Ellipse 19" cx="45.421" cy="13.749" rx="45.421" ry="13.749" transform="translate(423.029 454.403)" fill="none" stroke="#fff" stroke-linecap="round" stroke-linejoin="round" stroke-width="1"/>
      <path id="Path_375" data-name="Path 375" d="M326.657,278.246s-2.332,37.249.929,46.1,14.433,16.765,14.907,26.078,6.05,22.36,13.03,27.025,14.451,16.765,15.38,25.148,9.312,34.46,9.312,34.46,12.574-1.385,15.783-2.788,10.242-5.594,10.242-11.171-8.769-55.435-8.769-55.435l-29.357-91.3Z" transform="translate(86.604 36.439)" fill="#263238"/>
      <g id="Group_137" data-name="Group 137" transform="translate(412.453 312.809)" clip-path="url(#clip-path)">
        <path id="Path_376" data-name="Path 376" d="M326.657,278.246s-2.332,37.249.929,46.1,14.433,16.765,14.907,26.078,6.05,22.36,13.03,27.025,14.451,16.765,15.38,25.148,9.312,34.46,9.312,34.46,12.574-1.385,15.783-2.788,10.242-5.594,10.242-11.171-8.769-55.435-8.769-55.435l-29.357-91.3Z" transform="translate(-325.849 -276.37)" fill="#fff" opacity="0.2"/>
      </g>
      <path id="Path_378" data-name="Path 378" d="M326.657,278.246s-2.332,37.249.929,46.1,14.433,16.765,14.907,26.078,6.05,22.36,13.03,27.025,14.451,16.765,15.38,25.148,9.312,34.46,9.312,34.46,12.574-1.385,15.783-2.788,10.242-5.594,10.242-11.171-8.769-55.435-8.769-55.435l-29.357-91.3Z" transform="translate(86.604 36.439)" fill="none" stroke="#263238" stroke-linecap="round" stroke-linejoin="round" stroke-width="1"/>
      <path id="Path_379" data-name="Path 379" d="M325.109,268.693s0,42.843,7.927,51.226,10.242,28.884,9.312,36.337-2.332,24.675,3.262,28.866,8.769.947,5.594,11.645-2.806,14.906,1.859,20.027,8.383,9.33,8.383,13.048.929,14.907.929,14.907,1.859,4.191,16.309,4.191,18.151-1.859,17.695-10.715-2.806-14.433-.473-17.695,3.262-2.788,3.262-12.118-4.647-15.362-2.332-21.886,15.38-10.242,16.309-20.5-7.453-25.6-5.121-32.6,9.312-7.909,12.1-23.745a149.5,149.5,0,0,0,1.4-33.075V262.169l-97.348-.929Z" transform="translate(85.346 25.035)" fill="#263238" stroke="#263238" stroke-linecap="round" stroke-linejoin="round" stroke-width="1"/>
      <path id="Path_380" data-name="Path 380" d="M375.532,285.24a28.918,28.918,0,0,1-2.771,13.048c-6.3,13.609-19.9,26.183-15.783,28.287s12.557,1.035,11.522,15.783-29.339,25.131-15.783,25.131,23.044-5.261,14.661,3.139-9.435,12.574-5.261,18.87,13.626,9.417,6.3,16.748" transform="translate(104.089 43.124)" fill="none" stroke="#fff" stroke-linecap="round" stroke-linejoin="round" stroke-width="1"/>
      <path id="Path_381" data-name="Path 381" d="M348.36,356.223s19.08,2.981,27.147-2.543" transform="translate(103.57 94.708)" fill="none" stroke="#fff" stroke-linecap="round" stroke-linejoin="round" stroke-width="1"/>
      <path id="Path_382" data-name="Path 382" d="M362.57,278.94a20.135,20.135,0,0,1,1.841,4.682" transform="translate(114.281 38.376)" fill="none" stroke="#fff" stroke-linecap="round" stroke-linejoin="round" stroke-width="1"/>
      <path id="Path_383" data-name="Path 383" d="M354.155,201.3s-17.029,18.677-20.957,35.074-15.783,55.68-8.19,99.242l9.821-12.451,5.261,12.451h86.458s-1.631-92.368-9.821-113.64-26.849-31.777-30.8-32.759S358.733,194.179,354.155,201.3Z" transform="translate(84.096 -29.33)" fill="#fff" stroke="#263238" stroke-linecap="round" stroke-linejoin="round" stroke-width="1"/>
      <rect id="Rectangle_612" data-name="Rectangle 612" width="38.582" height="11.136" transform="translate(433.341 268.913)" fill="#fff" stroke="#263238" stroke-linecap="round" stroke-linejoin="round" stroke-width="1"/>
      <path id="Path_384" data-name="Path 384" d="M337.762,257.69v13.258a4.893,4.893,0,0,0,4.647,5.086h29.6a4.875,4.875,0,0,0,4.63-5.086V257.69Z" transform="translate(95.579 22.36)" fill="#fff" stroke="#263238" stroke-linecap="round" stroke-linejoin="round" stroke-width="1"/>
      <ellipse id="Ellipse_20" data-name="Ellipse 20" cx="25.85" cy="26.323" rx="25.85" ry="26.323" transform="translate(442.811 184.332)" fill="none" stroke="#263238" stroke-linecap="round" stroke-linejoin="round" stroke-width="1"/>
      <line id="Line_51" data-name="Line 51" x2="3.56" y2="15.17" transform="translate(465.118 169.163)" fill="none" stroke="#263238" stroke-linecap="round" stroke-linejoin="round" stroke-width="1"/>
      <line id="Line_52" data-name="Line 52" x2="1.438" y2="64.01" transform="translate(474.115 237.452)" fill="none" stroke="#263238" stroke-linecap="round" stroke-linejoin="round" stroke-width="1"/>
      <path id="Path_385" data-name="Path 385" d="M329.543,286.9a185.015,185.015,0,0,1,6.366-49.718" transform="translate(89.383 6.901)" fill="none" stroke="#263238" stroke-linecap="round" stroke-linejoin="round" stroke-width="1"/>
      <line id="Line_53" data-name="Line 53" x1="78.741" transform="translate(428.133 301.638)" fill="none" stroke="#263238" stroke-linecap="round" stroke-linejoin="round" stroke-width="1"/>
      <path id="Path_386" data-name="Path 386" d="M351.811,190.641l-15.783,10.154L335.361,208l8.19-3.613a376.417,376.417,0,0,0-7.857,38.985c-2.3,17.677.333,28.5.333,28.5s10.522-50.121,17.677-61.257a121.46,121.46,0,0,1,15.783-19.291S358.686,185.4,351.811,190.641Z" transform="translate(93.315 -29.808)" fill="#fff" stroke="#263238" stroke-linecap="round" stroke-linejoin="round" stroke-width="1"/>
      <line id="Line_54" data-name="Line 54" x2="7.523" y2="3.595" transform="translate(429.413 170.986)" fill="none" stroke="#263238" stroke-linecap="round" stroke-linejoin="round" stroke-width="1"/>
      <path id="Path_387" data-name="Path 387" d="M294.561,224.684l-8.014-5.664-4.349-5.787a7.874,7.874,0,0,0-7.857-3.016l-3.507.579a4.261,4.261,0,0,0-3.63,4.454,1.456,1.456,0,0,0,.316.894,9.751,9.751,0,0,1,1.228,4,23.9,23.9,0,0,0,3.069,6.471c1.754,1.947,9.593,1.754,9.593,1.754l12.416,7.015Z" transform="translate(42.397 -13.537)" fill="#fff" stroke="#263238" stroke-linecap="round" stroke-linejoin="round" stroke-width="1"/>
      <path id="Path_388" data-name="Path 388" d="M402.147,209.158l-37.161,43.317-80.355-25.832L280.37,238.2s78.268,46.666,83.529,48.56,18.133-1.263,22.5-5.524,38.389-34.741,42.212-39.739,5.682-21.956-3.244-32.093S402.147,209.158,402.147,209.158Z" transform="translate(52.326 -17.478)" fill="#fff"/>
      <g id="Group_138" data-name="Group 138" transform="translate(332.696 187.356)" clip-path="url(#clip-path-2)">
        <path id="Path_389" data-name="Path 389" d="M422.4,228.467c-1.631,11.066-42.089,41.44-44.544,43.843s-2.473-13.609-3.718-8.646-1.841,9.891-5.559,11.118-17.94-3.087-27.831-6.8c-5.735-2.14-30.3-12.574-50-21.045,23.447,14.1,61.643,36.565,65.326,37.863,5.261,1.894,18.133-1.263,22.5-5.524s38.389-34.741,42.212-39.739,5.682-21.956-3.244-32.093C417.455,207.44,424.032,217.4,422.4,228.467Z" transform="translate(-272.547 -202.87)" fill="#fff"/>
        <path id="Path_390" data-name="Path 390" d="M422.4,228.467c-1.631,11.066-42.089,41.44-44.544,43.843s-2.473-13.609-3.718-8.646-1.841,9.891-5.559,11.118-17.94-3.087-27.831-6.8c-5.735-2.14-30.3-12.574-50-21.045,23.447,14.1,61.643,36.565,65.326,37.863,5.261,1.894,18.133-1.263,22.5-5.524s38.389-34.741,42.212-39.739,5.682-21.956-3.244-32.093C417.455,207.44,424.032,217.4,422.4,228.467Z" transform="translate(-272.547 -202.87)" fill="#fff" opacity="0.5"/>
      </g>
      <path id="Path_392" data-name="Path 392" d="M402.147,209.158l-37.161,43.317-80.355-25.832L280.37,238.2s78.268,46.666,83.529,48.56,18.133-1.263,22.5-5.524,38.389-34.741,42.212-39.739,5.682-21.956-3.244-32.093S402.147,209.158,402.147,209.158Z" transform="translate(52.326 -17.478)" fill="none" stroke="#263238" stroke-linecap="round" stroke-linejoin="round" stroke-width="1"/>
      <path id="Path_393" data-name="Path 393" d="M328.62,232s6.734,1.754,10.329,12.592" transform="translate(88.692 2.997)" fill="#fff" stroke="#263238" stroke-linecap="round" stroke-linejoin="round" stroke-width="1"/>
      <path id="Path_394" data-name="Path 394" d="M329.13,233.29s3.139,2.262,3.139,11.241" transform="translate(89.077 3.969)" fill="#fff" stroke="#263238" stroke-linecap="round" stroke-linejoin="round" stroke-width="1"/>
      <path id="Path_395" data-name="Path 395" d="M386.491,217.564s-5.261-14.188-5.261-18.765,9.558-13.311,9.558-21.641-7.488-26.621-26.2-25.8-25.8,7.015-27.06,14.573a106.382,106.382,0,0,1-4.156,9.979c-2.069,4.156-6.243,9.154-4.981,10.4s7.015,2.49,7.015,2.508c-.737-.158.193,15.135.824,16.643,2.175,4.788,7.436,4.91,12.557,4.91a4.314,4.314,0,0,0,1.473-.3l7.857,17.239Z" transform="translate(88.343 -57.801)" fill="#fff"/>
      <g id="Group_139" data-name="Group 139" transform="translate(416.5 93.533)" clip-path="url(#clip-path-3)">
        <path id="Path_396" data-name="Path 396" d="M381,198.8c0-4.577,9.558-13.311,9.558-21.641s-7.488-26.621-26.2-25.8-25.8,7.015-27.06,14.573a106.384,106.384,0,0,1-4.156,9.979c-1.35,2.736-3.613,5.8-4.647,7.962l38.248,1.508a93.739,93.739,0,0,1-7.436,12.995c-3.069,4.384-14.573,7.857-20.764,10.154,2.613,1.754,6.384,1.912,10,1.912a4.314,4.314,0,0,0,1.473-.3l7.857,17.239,28.375-9.821S381,203.359,381,198.8Z" transform="translate(-327.906 -151.335)" fill="#fff"/>
        <path id="Path_397" data-name="Path 397" d="M381,198.8c0-4.577,9.558-13.311,9.558-21.641s-7.488-26.621-26.2-25.8-25.8,7.015-27.06,14.573a106.384,106.384,0,0,1-4.156,9.979c-1.35,2.736-3.613,5.8-4.647,7.962l38.248,1.508a93.739,93.739,0,0,1-7.436,12.995c-3.069,4.384-14.573,7.857-20.764,10.154,2.613,1.754,6.384,1.912,10,1.912a4.314,4.314,0,0,0,1.473-.3l7.857,17.239,28.375-9.821S381,203.359,381,198.8Z" transform="translate(-327.906 -151.335)" fill="#fff" opacity="0.5"/>
      </g>
      <path id="Path_399" data-name="Path 399" d="M386.491,217.564s-5.261-14.188-5.261-18.765,9.558-13.311,9.558-21.641-7.488-26.621-26.2-25.8-25.8,7.015-27.06,14.573a106.382,106.382,0,0,1-4.156,9.979c-2.069,4.156-6.243,9.154-4.981,10.4s7.015,2.49,7.015,2.508c-.737-.158.193,15.135.824,16.643,2.175,4.788,7.436,4.91,12.557,4.91a4.314,4.314,0,0,0,1.473-.3l7.857,17.239Z" transform="translate(88.343 -57.801)" fill="none" stroke="#263238" stroke-linecap="round" stroke-linejoin="round" stroke-width="1"/>
      <path id="Path_400" data-name="Path 400" d="M369.646,195.4c0-4.577,9.558-13.311,9.558-21.641a29.6,29.6,0,0,0-7.4-17.905c-9.68-.246-19.992,5.436-23.8,12.083,0,0-5.822,4.577-4.156,7.015a31.71,31.71,0,0,0,6.647,5.822s-2.911,4.156.421,2.911,4.156-5.419,7.909-5.419,4.981,4.174.824,10-7.909,6.646-7.909,6.646,9.575,7.488,14.977,4.577a22.183,22.183,0,0,0,3.227-2.175A8.888,8.888,0,0,1,369.646,195.4Z" transform="translate(99.944 -54.401)" fill="#263238" stroke="#263238" stroke-linecap="round" stroke-linejoin="round" stroke-width="1"/>
      <path id="Path_401" data-name="Path 401" d="M387.717,186.588,332.16,169.051s1.912-10.978,6.12-17.414,18.852-6.524,29.532-4.244,21.816,11.873,23.728,18.309S387.717,186.588,387.717,186.588Z" transform="translate(91.36 -61.795)" fill="#fff" stroke="#263238" stroke-linecap="round" stroke-linejoin="round" stroke-width="1"/>
      <path id="Path_402" data-name="Path 402" d="M343.7,159.2s-28.831,1.631-26.744,3.718,20.8,5,28.287,5.822,18.73-2.876,18.73-2.876Z" transform="translate(79.82 -51.873)" fill="#fff" stroke="#263238" stroke-linecap="round" stroke-linejoin="round" stroke-width="1"/>
      <path id="Path_403" data-name="Path 403" d="M374.736,184.85l-32.5,16.064,2.946,11.452,32.5-18.659Z" transform="translate(98.958 -32.541)" fill="#fff" stroke="#263238" stroke-linecap="round" stroke-linejoin="round" stroke-width="1"/>
    </g>
  </g>
</svg>
