<svg id="fishing-net_-white" data-name="fishing-net -white" xmlns="http://www.w3.org/2000/svg" width="97.959" height="97.286" viewBox="0 0 97.959 97.286">
  <path id="Path_303" data-name="Path 303" d="M37.832,46.569H34.9c-3.622,0-6.377,2.256-7.88,3.855C25.072,48.394,21.075,45,16.072,45a13.3,13.3,0,0,0-10.72,5.406l-.505.756.408.816c.144.292,3.654,7.144,10.818,7.144A18.1,18.1,0,0,0,26.85,55.086c1.461,1.6,4.295,4.036,8.051,4.036h2.931l-1.626-2.44a6.9,6.9,0,0,1,0-7.675ZM16.072,55.984c-3.929,0-6.477-3.055-7.5-4.574a10.2,10.2,0,0,1,7.5-3.272c3.885,0,7.2,2.9,8.762,4.544A14.968,14.968,0,0,1,16.072,55.984Zm16.143-.654a10.569,10.569,0,0,1-3.157-2.484,10.569,10.569,0,0,1,3.157-2.484,9.975,9.975,0,0,0,0,4.968Z" transform="translate(1.189 24.042)" fill="#fff"/>
  <path id="Path_304" data-name="Path 304" d="M73.832,55.569H70.9c-3.622,0-6.377,2.256-7.88,3.855C61.072,57.394,57.075,54,52.072,54a13.3,13.3,0,0,0-10.72,5.406l-.505.756.408.816c.144.292,3.654,7.144,10.818,7.144A18.1,18.1,0,0,0,62.85,64.086c1.461,1.6,4.295,4.036,8.051,4.036h2.931l-1.626-2.44a6.9,6.9,0,0,1,0-7.675ZM52.072,64.984c-3.929,0-6.477-3.055-7.5-4.574a10.2,10.2,0,0,1,7.5-3.272c3.885,0,7.2,2.9,8.762,4.544A14.968,14.968,0,0,1,52.072,64.984Zm16.143-.654a10.569,10.569,0,0,1-3.157-2.484,10.569,10.569,0,0,1,3.157-2.484A9.975,9.975,0,0,0,68.215,64.33Z" transform="translate(21.677 29.164)" fill="#fff"/>
  <path id="Path_305" data-name="Path 305" d="M14,59h9.415v3.138H14Z" transform="translate(6.399 32.009)" fill="#fff"/>
  <path id="Path_306" data-name="Path 306" d="M57,45h9.415v3.138H57Z" transform="translate(30.871 24.042)" fill="#fff"/>
  <path id="Path_307" data-name="Path 307" d="M32,49H44.553v3.138H32Z" transform="translate(16.643 26.318)" fill="#fff"/>
  <path id="Path_308" data-name="Path 308" d="M30,53h6.277v3.138H30Z" transform="translate(15.505 28.595)" fill="#fff"/>
  <path id="Path_309" data-name="Path 309" d="M52.922,66.089a12.376,12.376,0,0,0,7.7,2.384c4.326,0,6.758-1.99,8.9-3.744a13.2,13.2,0,0,1,4.149-2.614c2.482-.824,5.239.7,8.156,2.324a30.334,30.334,0,0,0,4.973,2.383c1.679.562,5.622,1.88,11.02-3.516l1.133-1.133-17.394-16.7-1.649-1.649-.033.033L58.119,22.968H54.35v-.554a8.139,8.139,0,0,0,4.707-7.292A19.537,19.537,0,0,0,54.35,1.941V1H51.212V3.219l.46.46a16.164,16.164,0,0,1,4.248,11.444,4.683,4.683,0,0,1-1.707,3.626,4.692,4.692,0,0,0-9.139,0,4.683,4.683,0,0,1-1.707-3.626A16.164,16.164,0,0,1,47.614,3.678l.46-.46V1H44.936v.941a19.54,19.54,0,0,0-4.707,13.181,8.137,8.137,0,0,0,4.707,7.292v.554H41.226L1,56.757v.731C1,59.117,2.312,62.2,7.277,62.2a16.837,16.837,0,0,0,5.848-1.423c2.754-1.032,5.133-1.924,7.4-.41a15.187,15.187,0,0,1,3.512,3.509c1.792,2.263,3.647,4.6,8.341,4.6,3.292,0,5.8-1.484,8.021-2.795,2.415-1.425,4.5-2.657,7.29-1.96a15.812,15.812,0,0,1,5.228,2.371ZM56.7,51.347,51.077,45.72,56.7,40.093l5.627,5.627Zm7.846-3.408,5.627,5.627L64.55,59.193l-5.627-5.627ZM48.993,32.383l5.492,5.492L48.858,43.5l-5.627-5.627,5.492-5.492Zm9.929,5.492,4.993-4.993,5.741,5.512L64.55,43.5ZM56.7,35.656l-3.273-3.273h6.546Zm-15.691,0L37.74,32.383h6.546Zm-2.219,2.219L33.167,43.5l-5.253-5.253,6.116-5.137ZM30.948,45.72l-5.627,5.627-5.936-5.936L25.5,40.274Zm2.219,2.219,5.627,5.627-5.627,5.627L27.54,53.566Zm2.219-2.219,5.627-5.627L46.64,45.72l-5.627,5.627Zm13.473,2.219,5.627,5.627-5.627,5.627-5.627-5.627Zm2.423,13.677-.2-.2L56.7,55.785l5.627,5.627-3.767,3.767a9.661,9.661,0,0,1-3.95-1.732,21.426,21.426,0,0,0-3.333-1.831ZM64.55,63.63l.5.5a8.363,8.363,0,0,1-1.82.816Zm8.134-4.491a15.667,15.667,0,0,0-5.078,3.11l-.838-.838L72.4,55.785l2.972,2.972A7.663,7.663,0,0,0,72.684,59.139Zm8.341.838-6.411-6.411,5.313-5.313,6.542,6.281ZM87.8,63.847a26.23,26.23,0,0,1-4.193-2.012l5.128-5.128,5.693,5.465C91.091,64.95,88.989,64.242,87.8,63.847Zm-15.4-12.5L66.768,45.72l5.153-5.153,5.741,5.512ZM42.368,26.106h5.705V19.83a1.569,1.569,0,1,1,3.138,0v6.277h5.646l3.268,3.138H38.632ZM4.349,58.044l4.1-3.443,3.325,3.325a13.589,13.589,0,0,1-4.5,1.131C5.416,59.058,4.658,58.5,4.349,58.044ZM15.1,56.814l-4.24-4.24,6.116-5.137L23.1,53.566l-3.141,3.141A9.2,9.2,0,0,0,15.1,56.814Zm7.789,1.406,2.435-2.435,5.627,5.627L28.359,64A15.038,15.038,0,0,1,26.5,61.923a19.52,19.52,0,0,0-3.614-3.7Zm8.627,7.066,1.654-1.654,1.386,1.386a7.951,7.951,0,0,1-2.17.317C32.067,65.334,31.788,65.311,31.513,65.286Zm7.295-2.31c-.4.234-.786.461-1.177.681l-2.245-2.245,5.627-5.627L45.631,60.4A14.926,14.926,0,0,0,38.808,62.976Z" transform="translate(-1 -1)" fill="#fff"/>
</svg>
