<?xml version="1.0" encoding="utf-8"?>
<!-- Generator: Adobe Illustrator 25.1.0, SVG Export Plug-In . SVG Version: 6.00 Build 0)  -->
<svg version="1.1" id="Layer_1" xmlns="http://www.w3.org/2000/svg" xmlns:xlink="http://www.w3.org/1999/xlink" x="0px" y="0px"
	 viewBox="0 0 250.9 319.1" style="enable-background:new 0 0 250.9 319.1;" xml:space="preserve">
<style type="text/css">
	.st0{fill:#373435;}
	.st1{fill:#848688;}
	.st2{fill:#848688;stroke:#848688;stroke-width:0.216;stroke-miterlimit:10;}
	.st3{fill:none;stroke:#FEFEFE;stroke-width:2.4998;stroke-linecap:round;stroke-linejoin:round;stroke-miterlimit:10;}
	.st4{fill-rule:evenodd;clip-rule:evenodd;fill:#D2D3D5;}
	.st5{clip-path:url(#SVGID_2_);}
	.st6{fill-rule:evenodd;clip-rule:evenodd;fill:#848688;}
	.st7{fill:none;}
	.st8{clip-path:url(#SVGID_4_);}
	.st9{clip-path:url(#SVGID_6_);}
</style>
<g id="Layer_x0020_1">
	<path class="st0" d="M195.3,169.3c0,0-139.7-1.7-185.5-56.2c0,0,17.7,42.7,88.4,56.2c0,0-38.7-3-61.3-17.9l7,17.9
		c0,0,21,13,23.8,35.7c0,0,29.8-7.6,70.9,0c41.1,7.5,60.5,14.1,71.4,6.8l16.3-28.2c0,0,12.5-6.3,14.8-19.6
		C241.1,164.1,219.3,169.3,195.3,169.3z M71.1,200.5L71.1,200.5l-2.2-6.8c58.8-7.2,108.5,14.8,108.5,14.8
		C94,187.2,71.1,200.5,71.1,200.5z"/>
	<path class="st1" d="M47,221.9c0,0,2.6-1.9,7.8-4.3c5.1-2.3,12.7-5.1,22.2-6.9c4.8-0.9,9.9-1.7,15.5-2.1c5.5-0.4,11.4-0.6,17.4-0.4
		c6,0.1,12.3,0.6,18.6,1.5c6.3,0.9,12.6,1.9,18.9,3.4c6.3,1.4,12.5,3.2,18.4,4.7c6,1.5,12,3,17.7,4.2c5.8,1.3,11.3,2.4,16.6,3.3
		c2.7,0.5,5.3,0.9,7.7,1.2c2.5,0.4,4.9,0.6,7.2,0.7c2.3,0.1,4.5,0.2,6.6,0.1c2.1,0,4.1-0.1,5.9-0.4c3.7-0.5,6.8-1.5,9.2-2.7
		c2.4-1.3,4.2-2.6,5.4-3.5c1.2-0.9,1.9-1.4,1.9-1.4s-0.6,0.6-1.5,1.7c-1.1,1.2-2.5,2.9-4.9,4.6c-2.3,1.7-5.5,3.5-9.4,4.6
		c-3.9,1.2-8.4,1.8-13.2,2c-2.4,0.1-5,0.1-7.6,0.1c-2.6-0.1-5.3-0.2-8.1-0.4c-5.5-0.5-11.3-1.2-17.2-2.2c-5.9-1-12-2.2-18.1-3.7
		c-6.2-1.4-12.2-3-18.4-4.4c-6-1.4-12.2-2.6-18.2-3.6s-12.1-1.7-17.9-2.2c-5.8-0.4-11.4-0.8-16.8-0.8c-5.3,0-10.4,0.1-15,0.6
		c-9.3,0.7-17.1,2.2-22.4,3.7c-2.7,0.7-4.8,1.4-6.1,1.9C47.7,221.7,47,221.9,47,221.9z"/>
	<path class="st2" d="M78.3,227.6c0,0,0.6-0.1,1.5-0.4c1-0.2,2.4-0.6,4.3-0.9c1.9-0.4,4.2-0.8,6.8-1.1c2.6-0.4,5.6-0.6,8.9-0.9
		c3.2-0.1,6.8-0.3,10.6-0.2c3.7,0.1,7.7,0.2,11.8,0.6c4,0.4,8.3,0.9,12.5,1.5c4.2,0.6,8.6,1.4,12.8,2.4c4.2,0.9,8.5,2.1,12.6,3.2
		c4,1.1,8.1,2.1,12,3.2c4,0.9,7.7,1.9,11.3,2.8c3.5,0.9,6.9,1.7,10.1,2.4c6.3,1.4,11.5,2.4,15.3,3.2c3.7,0.6,5.9,0.9,5.9,0.9
		s-2.2,0.4-6,0.5c-1.9,0.1-4.2,0.1-6.9,0.1c-2.7-0.1-5.6-0.2-8.9-0.6c-3.2-0.2-6.8-0.7-10.4-1.2s-7.6-1.2-11.6-2c-2-0.4-4-0.8-6-1.2
		c-2.1-0.4-4.2-0.9-6.3-1.4c-4.1-1-8.2-2.1-12.4-3.1c-4.2-0.9-8.4-1.9-12.5-2.6c-4.1-0.9-8.2-1.6-12.2-2.2c-1.9-0.3-3.9-0.6-5.8-0.8
		c-1.9-0.3-3.8-0.5-5.6-0.7c-3.7-0.4-7.1-0.7-10.3-0.9c-3.2-0.2-6.2-0.4-8.8-0.4c-2.6-0.1-4.9-0.1-6.8-0.1c-1.9-0.1-3.4-0.1-4.4-0.1
		S78.3,227.6,78.3,227.6z"/>
	<g>
		<path class="st3" d="M30,292.4c-0.6,0-1.2-0.4-1.5-1.1L17,268.9l-9.1,16.9h13.5c0.6,0,0.8,0.5,0.8,1.5v3.5c0,1-0.2,1.5-0.8,1.5
			H1.8c-0.4,0-0.6-0.3-0.6-0.9c0-0.1,0-0.2,0-0.4c0.1-0.1,0.1-0.3,0.2-0.4l18.6-35.1c0.4-0.7,0.8-1.1,1.2-1.1h1.9
			c0.5,0,0.9,0.4,1.3,1.1l18.4,35c0.1,0.2,0.1,0.4,0.2,0.6c0,0.1,0,0.4,0,0.5c0,0.6-0.2,0.9-0.6,0.9H30z M51.7,292.4
			c-1.4,0-2.7-0.4-3.9-1.4c-1.2-0.9-2.2-2.2-3.1-3.9c-0.9-1.7-1.6-3.7-2-6c-0.5-2.3-0.8-4.9-0.8-7.6c0-2.7,0.3-5.2,0.7-7.6
			c0.5-2.3,1.2-4.3,2-6c0.8-1.7,1.9-3,3-4c1.2-0.9,2.5-1.4,4-1.4h20.7c0.5,0,0.8,0.5,0.8,1.4v3.6c0,1-0.3,1.5-0.8,1.5H58.6
			c-0.6,0-1.2,0.1-1.7,0.4c-0.4,0.3-0.8,0.7-1.1,1.4c-0.3,0.6-0.4,1.5-0.6,2.7c-0.1,1.1-0.2,2.5-0.2,4.2v6c0,1.9,0.1,3.5,0.2,4.8
			c0.1,1.3,0.4,2.3,0.6,3.1c0.3,0.8,0.6,1.4,1.1,1.7c0.4,0.3,1,0.5,1.6,0.5h5.3v-17.1c0-1,0.3-1.5,0.8-1.5h8.5
			c0.5,0,0.8,0.5,0.8,1.5v22.1c0,1-0.3,1.5-0.8,1.5H51.7z M104.6,292.4c-0.6,0-1.2-0.4-1.5-1.1l-11.5-22.4l-9.1,16.9h13.5
			c0.6,0,0.8,0.5,0.8,1.5v3.5c0,1-0.2,1.5-0.8,1.5H76.3c-0.4,0-0.6-0.3-0.6-0.9c0-0.1,0-0.2,0.1-0.4c0-0.1,0.1-0.3,0.1-0.4
			l18.6-35.1c0.4-0.7,0.8-1.1,1.2-1.1h1.9c0.5,0,0.9,0.4,1.3,1.1l18.4,35c0.1,0.2,0.1,0.4,0.2,0.6c0,0.1,0,0.4,0,0.5
			c0,0.6-0.2,0.9-0.6,0.9H104.6z M119.7,292.4c-0.5,0-0.8-0.5-0.8-1.5v-3.5c0-1,0.3-1.5,0.8-1.5h16.6l-14-12.3
			c-0.8-0.6-1.4-1.4-1.9-2.1c-0.4-0.7-0.9-1.5-1.1-2.3c-0.3-0.8-0.4-1.7-0.6-2.5c-0.1-0.9-0.1-1.9-0.1-2.9c0-1.2,0.1-2.4,0.4-3.5
			c0.3-1.1,0.6-2.1,1.1-3c0.5-0.9,1.2-1.5,1.9-2c0.7-0.5,1.5-0.8,2.4-0.8h21.9c0.5,0,0.8,0.5,0.8,1.4v3.6c0,1-0.3,1.5-0.8,1.5h-16.1
			l14,12.3c0.8,0.6,1.4,1.4,1.9,2.1c0.4,0.7,0.9,1.5,1.1,2.3c0.3,0.8,0.4,1.7,0.6,2.5c0.1,0.9,0.1,1.9,0.1,2.9
			c0,1.2-0.1,2.4-0.3,3.5c-0.3,1.2-0.6,2.2-1.2,3c-0.4,0.9-1.1,1.6-1.7,2.1c-0.7,0.5-1.6,0.7-2.5,0.7H119.7z M158.7,292.4
			c-0.4,0-0.6-0.2-0.6-0.7v-30.7h-8.6c-0.4,0-0.6-0.2-0.6-0.6v-5.2c0-0.4,0.2-0.7,0.6-0.7h29.1c0.4,0,0.6,0.3,0.6,0.7v5.2
			c0,0.4-0.1,0.6-0.6,0.6h-8.6v30.7c0,0.5-0.2,0.7-0.6,0.7H158.7z M191.8,292.4c-0.5,0-0.7-0.5-0.7-1.5v-13.2l-10.7-21.3
			c-0.2-0.4-0.3-0.7-0.3-1c0-0.3,0.1-0.5,0.1-0.7c0.1-0.1,0.3-0.2,0.4-0.2h12c0.6,0,1,0.4,1.4,1.2l7.9,16.3l8.2-16.3
			c0.2-0.4,0.4-0.6,0.6-0.9c0.2-0.1,0.4-0.2,0.7-0.2h1.7c0.2,0,0.4,0.1,0.4,0.3c0.1,0.1,0.1,0.4,0.1,0.6c0,0.3-0.1,0.5-0.1,0.7
			l-10.8,21.3v13.6c0,1-0.2,1.5-0.8,1.5H191.8z M236.5,292.4c-0.6,0-1.2-0.4-1.6-1.1l-11.4-22.4l-9.1,16.9h13.5
			c0.5,0,0.8,0.5,0.8,1.5v3.5c0,1-0.3,1.5-0.8,1.5h-19.7c-0.4,0-0.6-0.3-0.6-0.9c0-0.1,0.1-0.2,0.1-0.4c0-0.1,0.1-0.3,0.2-0.4
			l18.6-35.1c0.4-0.7,0.8-1.1,1.3-1.1h1.9c0.5,0,0.9,0.4,1.3,1.1l18.4,35c0.1,0.2,0.1,0.4,0.1,0.6c0.1,0.1,0.1,0.4,0.1,0.5
			c0,0.6-0.2,0.9-0.7,0.9H236.5z"/>
		<path id="_x31_" class="st0" d="M30,292.4c-0.6,0-1.2-0.4-1.5-1.1L17,268.9l-9.1,16.9h13.5c0.6,0,0.8,0.5,0.8,1.5v3.5
			c0,1-0.2,1.5-0.8,1.5H1.8c-0.4,0-0.6-0.3-0.6-0.9c0-0.1,0-0.2,0-0.4c0.1-0.1,0.1-0.3,0.2-0.4l18.6-35.1c0.4-0.7,0.8-1.1,1.2-1.1
			h1.9c0.5,0,0.9,0.4,1.3,1.1l18.4,35c0.1,0.2,0.1,0.4,0.2,0.6c0,0.1,0,0.4,0,0.5c0,0.6-0.2,0.9-0.6,0.9H30z M51.7,292.4
			c-1.4,0-2.7-0.4-3.9-1.4c-1.2-0.9-2.2-2.2-3.1-3.9c-0.9-1.7-1.6-3.7-2-6c-0.5-2.3-0.8-4.9-0.8-7.6c0-2.7,0.3-5.2,0.7-7.6
			c0.5-2.3,1.2-4.3,2-6c0.8-1.7,1.9-3,3-4c1.2-0.9,2.5-1.4,4-1.4h20.7c0.5,0,0.8,0.5,0.8,1.4v3.6c0,1-0.3,1.5-0.8,1.5H58.6
			c-0.6,0-1.2,0.1-1.7,0.4c-0.4,0.3-0.8,0.7-1.1,1.4c-0.3,0.6-0.4,1.5-0.6,2.7c-0.1,1.1-0.2,2.5-0.2,4.2v6c0,1.9,0.1,3.5,0.2,4.8
			c0.1,1.3,0.4,2.3,0.6,3.1c0.3,0.8,0.6,1.4,1.1,1.7c0.4,0.3,1,0.5,1.6,0.5h5.3v-17.1c0-1,0.3-1.5,0.8-1.5h8.5
			c0.5,0,0.8,0.5,0.8,1.5v22.1c0,1-0.3,1.5-0.8,1.5H51.7z M104.6,292.4c-0.6,0-1.2-0.4-1.5-1.1l-11.5-22.4l-9.1,16.9h13.5
			c0.6,0,0.8,0.5,0.8,1.5v3.5c0,1-0.2,1.5-0.8,1.5H76.3c-0.4,0-0.6-0.3-0.6-0.9c0-0.1,0-0.2,0.1-0.4c0-0.1,0.1-0.3,0.1-0.4
			l18.6-35.1c0.4-0.7,0.8-1.1,1.2-1.1h1.9c0.5,0,0.9,0.4,1.3,1.1l18.4,35c0.1,0.2,0.1,0.4,0.2,0.6c0,0.1,0,0.4,0,0.5
			c0,0.6-0.2,0.9-0.6,0.9H104.6z M119.7,292.4c-0.5,0-0.8-0.5-0.8-1.5v-3.5c0-1,0.3-1.5,0.8-1.5h16.6l-14-12.3
			c-0.8-0.6-1.4-1.4-1.9-2.1c-0.4-0.7-0.9-1.5-1.1-2.3c-0.3-0.8-0.4-1.7-0.6-2.5c-0.1-0.9-0.1-1.9-0.1-2.9c0-1.2,0.1-2.4,0.4-3.5
			c0.3-1.1,0.6-2.1,1.1-3c0.5-0.9,1.2-1.5,1.9-2c0.7-0.5,1.5-0.8,2.4-0.8h21.9c0.5,0,0.8,0.5,0.8,1.4v3.6c0,1-0.3,1.5-0.8,1.5h-16.1
			l14,12.3c0.8,0.6,1.4,1.4,1.9,2.1c0.4,0.7,0.9,1.5,1.1,2.3c0.3,0.8,0.4,1.7,0.6,2.5c0.1,0.9,0.1,1.9,0.1,2.9
			c0,1.2-0.1,2.4-0.3,3.5c-0.3,1.2-0.6,2.2-1.2,3c-0.4,0.9-1.1,1.6-1.7,2.1c-0.7,0.5-1.6,0.7-2.5,0.7H119.7z M158.7,292.4
			c-0.4,0-0.6-0.2-0.6-0.7v-30.7h-8.6c-0.4,0-0.6-0.2-0.6-0.6v-5.2c0-0.4,0.2-0.7,0.6-0.7h29.1c0.4,0,0.6,0.3,0.6,0.7v5.2
			c0,0.4-0.1,0.6-0.6,0.6h-8.6v30.7c0,0.5-0.2,0.7-0.6,0.7H158.7z M191.8,292.4c-0.5,0-0.7-0.5-0.7-1.5v-13.2l-10.7-21.3
			c-0.2-0.4-0.3-0.7-0.3-1c0-0.3,0.1-0.5,0.1-0.7c0.1-0.1,0.3-0.2,0.4-0.2h12c0.6,0,1,0.4,1.4,1.2l7.9,16.3l8.2-16.3
			c0.2-0.4,0.4-0.6,0.6-0.9c0.2-0.1,0.4-0.2,0.7-0.2h1.7c0.2,0,0.4,0.1,0.4,0.3c0.1,0.1,0.1,0.4,0.1,0.6c0,0.3-0.1,0.5-0.1,0.7
			l-10.8,21.3v13.6c0,1-0.2,1.5-0.8,1.5H191.8z M236.5,292.4c-0.6,0-1.2-0.4-1.6-1.1l-11.4-22.4l-9.1,16.9h13.5
			c0.5,0,0.8,0.5,0.8,1.5v3.5c0,1-0.3,1.5-0.8,1.5h-19.7c-0.4,0-0.6-0.3-0.6-0.9c0-0.1,0.1-0.2,0.1-0.4c0-0.1,0.1-0.3,0.2-0.4
			l18.6-35.1c0.4-0.7,0.8-1.1,1.3-1.1h1.9c0.5,0,0.9,0.4,1.3,1.1l18.4,35c0.1,0.2,0.1,0.4,0.1,0.6c0.1,0.1,0.1,0.4,0.1,0.5
			c0,0.6-0.2,0.9-0.7,0.9H236.5z"/>
	</g>
	<path class="st1" d="M10.8,318.6l-0.2,0.2h4.3l-0.2-0.2v-17.6h-0.3l-6,6.8l-6-6.8H2v17.7l-0.2,0.2h4.2l-0.2-0.2v-4.2l-0.1-4.4
		l2.6,2.9l2.6-2.9l-0.1,4.3V318.6z M60,315.9l0.6,2.7l-0.2,0.2h4.5l-0.2-0.2l-4.5-17.2l0.2-0.2h-4.5l0.2,0.2l-4.4,17.2l-0.2,0.2H56
		l-0.2-0.2l0.6-2.7H60z M58.1,306.7L58.1,306.7l1,5.6h-1.9L58.1,306.7z M101.8,318.6l-0.2,0.2h4.3l-0.2-0.2v-5.2h1.4l1.7,5.2
		l-0.3,0.2h4.5l-0.2-0.2l-2.3-6.1c1.4-0.7,1.8-2.1,1.8-3.4v-3.5c0-3-2.1-4.5-4.6-4.5h-6l0.2,0.2V318.6z M105.7,304.8h1.9
		c0.4,0,0.7,0.3,0.7,0.7v3.6c0,0.4-0.3,0.7-0.7,0.7h-1.9V304.8z M154,301.3l0.2-0.2h-4.4l0.2,0.2v17.3l-0.2,0.2h4.4l-0.2-0.2V301.3z
		 M195.6,311.2l6.9,7.9h0.2v-17.9l0.2-0.2h-4.1l0.2,0.2v8.6l-6.9-8.9H192v17.6l-0.2,0.2h4.1l-0.2-0.2V311.2z M240.7,301.1v17.5
		l-0.2,0.2h8.5l0.3,0.2v-4.2L249,315h-4.4v-3.1h3.7l0.2,0.2v-4.3l-0.2,0.2h-3.7v-3h4l0.2,0.2v-4.3l-0.1,0.2H240.7z"/>
	<path class="st4" d="M86.9,118.1c0,0,38.4-95.7,120.8-118c0,0-85.7,53-104.7,133.9L86.9,118.1z"/>
	<g>
		<defs>
			<path id="SVGID_1_" d="M86.9,118.1c0,0,38.4-95.7,120.8-118c0,0-85.7,53-104.7,133.9L86.9,118.1z"/>
		</defs>
		<clipPath id="SVGID_2_">
			<use xlink:href="#SVGID_1_"  style="overflow:visible;"/>
		</clipPath>
		<g class="st5">
			<g>
				<path id="_x31__1_" class="st6" d="M79.4,110.7c0,0,43-93,128.3-110.6c-3.2-2.7-95.1,41.6-113.4,125.1L79.4,110.7z"/>
			</g>
		</g>
	</g>
	<path class="st7" d="M86.9,118.1c0,0,38.4-95.7,120.8-118c0,0-85.7,53-104.7,133.9L86.9,118.1z"/>
	<path class="st4" d="M108.8,140.1c0,0,18.6-79.6,98.9-140c0,0-57.2,49.2-82.8,155.9L108.8,140.1z"/>
	<g>
		<defs>
			<path id="SVGID_3_" d="M108.8,140.1c0,0,18.6-79.6,98.9-140c0,0-57.2,49.2-82.8,155.9L108.8,140.1z"/>
		</defs>
		<clipPath id="SVGID_4_">
			<use xlink:href="#SVGID_3_"  style="overflow:visible;"/>
		</clipPath>
		<g class="st8">
			<g>
				<path id="_x31__2_" class="st6" d="M96.8,138.6c0,0,30.6-78,110.9-138.5c0,0-69.2,47.5-94.8,154.4L96.8,138.6z"/>
			</g>
		</g>
	</g>
	<path class="st7" d="M108.8,140.1c0,0,18.6-79.6,98.9-140c0,0-57.2,49.2-82.8,155.9L108.8,140.1z"/>
	<path class="st4" d="M132.3,162.4c0,0,23.6-113.4,75.5-162.3c0,0-54.6,83.2-28.9,163.4l-27.7,18.1L132.3,162.4z"/>
	<g>
		<defs>
			<path id="SVGID_5_" d="M132.3,162.4c0,0,23.6-113.4,75.5-162.3c0,0-54.6,83.2-28.9,163.4l-27.7,18.1L132.3,162.4z"/>
		</defs>
		<clipPath id="SVGID_6_">
			<use xlink:href="#SVGID_5_"  style="overflow:visible;"/>
		</clipPath>
		<g class="st9">
			<g>
				<path id="_x31__3_" class="st6" d="M101.3,144.5c0,0,46.2-113.2,106.4-144.4c-8.4,6.5-84.2,118.9-56.7,181.5l-35.4-14.3
					L101.3,144.5z"/>
			</g>
		</g>
	</g>
	<path class="st7" d="M132.3,162.4c0,0,23.6-113.4,75.5-162.3c0,0-54.6,83.2-28.9,163.4l-27.7,18.1L132.3,162.4z"/>
</g>
</svg>
