<svg xmlns="http://www.w3.org/2000/svg" width="42.469" height="34.506" viewBox="0 0 42.469 34.506">
  <path id="mail-inbox-app" d="M37.492,48H4.977A4.982,4.982,0,0,0,0,52.977v4.105L18.264,70.667a4.947,4.947,0,0,0,5.94,0L42.469,57.082V52.977A4.982,4.982,0,0,0,37.492,48Zm1.659,7.415L22.225,68.005a1.649,1.649,0,0,1-1.98,0L3.318,55.415V52.977a1.661,1.661,0,0,1,1.659-1.659H37.492a1.661,1.661,0,0,1,1.659,1.659Zm0,8.27,3.318-2.468V77.529a4.982,4.982,0,0,1-4.977,4.977H4.977A4.982,4.982,0,0,1,0,77.529V61.217l3.318,2.468V77.529a1.661,1.661,0,0,0,1.659,1.659H37.492a1.661,1.661,0,0,0,1.659-1.659Z" transform="translate(0 -48)" fill="#fff"/>
</svg>
