<svg xmlns="http://www.w3.org/2000/svg" width="40.633" height="40.632" viewBox="0 0 40.633 40.632">
  <g id="phone-call_2_" data-name="phone-call (2)" transform="translate(0 -0.001)">
    <g id="Group_189" data-name="Group 189" transform="translate(0 0.002)">
      <path id="Path_570" data-name="Path 570" d="M40.629,32.742a6.011,6.011,0,0,0-1.843-4.13,14.763,14.763,0,0,0-5.845-3.883,6.542,6.542,0,0,0-6.717,1.906l-.009.009-2.146,2.13A32.158,32.158,0,0,1,17.3,23.54l-.209-.209a32.162,32.162,0,0,1-5.233-6.766l2.13-2.146L14,14.411a6.542,6.542,0,0,0,1.906-6.717,14.763,14.763,0,0,0-3.883-5.845,6.04,6.04,0,0,0-8.382-.3l-.046.041q-.032.028-.062.059A12.878,12.878,0,0,0,0,11.079C.033,17.6,3.619,25.067,9.593,31.041A38.685,38.685,0,0,0,13.4,34.354a1.587,1.587,0,0,0,1.931-2.519A35.54,35.54,0,0,1,11.838,28.8C6.442,23.4,3.2,16.771,3.175,11.063A9.806,9.806,0,0,1,5.749,3.92l.012-.011a2.855,2.855,0,0,1,3.977.143c4.109,4.262,3.812,6.273,2,8.135L8.791,15.152a1.587,1.587,0,0,0-.323,1.764,32.072,32.072,0,0,0,6.382,8.661l.209.209a32.067,32.067,0,0,0,8.66,6.381,1.587,1.587,0,0,0,1.764-.323L28.447,28.9c1.862-1.816,3.874-2.113,8.135,2a2.855,2.855,0,0,1,.144,3.976l-.011.012a9.776,9.776,0,0,1-7.071,2.574h-.072a20.581,20.581,0,0,1-7.832-1.854,1.587,1.587,0,0,0-1.257,2.915,23.415,23.415,0,0,0,9.073,2.114h.089A12.85,12.85,0,0,0,38.988,37.1c.02-.02.04-.041.059-.062l.041-.046A6.01,6.01,0,0,0,40.629,32.742Z" transform="translate(0 -0.002)" fill="#fff"/>
    </g>
  </g>
</svg>
