<svg xmlns="http://www.w3.org/2000/svg" width="89.998" height="89.999" viewBox="0 0 89.998 89.999">
  <g id="XMLID_782_" transform="translate(-0.003)">
    <g id="XMLID_65__white" transform="translate(0.003 0)">
      <path id="XMLID_834_" d="M82.97,57.887V45.757A27.422,27.422,0,0,0,62.579,0H43.268a29.953,29.953,0,0,0-5.227.46l-.06.011A29.551,29.551,0,0,0,20.11,11.115a1.758,1.758,0,0,0,2.737,2.206h5.683a24.178,24.178,0,0,0-7.15,11.831L17.1,29.988v-.306a26.563,26.563,0,0,1,.144-2.762,1.758,1.758,0,1,0-3.5-.367,30.111,30.111,0,0,0-.163,3.129V44.425l-2.157,1.1a5.281,5.281,0,0,0-2.5,6.66L3.249,60.555a18.863,18.863,0,1,0,31.222,0L26.609,48.964a5.27,5.27,0,0,0-2.476-8.01V31.181A20.669,20.669,0,0,1,40.665,10.957,27.424,27.424,0,0,0,72.423,53.023v7.156a5.271,5.271,0,0,0,0,8.643v7.555a1.758,1.758,0,0,0,1.758,1.758h7.031a1.758,1.758,0,0,0,1.758-1.758V66.53a5.271,5.271,0,0,0,0-8.643ZM17.1,35.294l3.516-3.975v9.588a5.322,5.322,0,0,0-.694.292L17.1,42.636ZM13.024,48.656l8.494-4.323a1.758,1.758,0,1,1,1.594,3.133l-8.494,4.323a1.758,1.758,0,1,1-1.594-3.133Zm15.117,8.829L26.9,61.912,20.63,52.675l3.158-1.607ZM12.979,77.024a8.327,8.327,0,0,1-1-10.549L18.86,56.328l6.883,10.147A8.317,8.317,0,0,1,12.979,77.024ZM9.067,64.5a11.8,11.8,0,0,0-2.034,6.792L3.968,74.827A15.355,15.355,0,0,1,5.521,63.557L9.1,64.45Zm2.281-9.626a5.31,5.31,0,0,0,2.481.619,5.236,5.236,0,0,0,1.494-.218L11.2,61.351l-3.633-.906ZM5.41,78.53l2.507-2.89a11.832,11.832,0,0,0,4.976,5.724l2.188,4.656A15.311,15.311,0,0,1,5.41,78.53Zm13.77,7.946L17.5,82.891a12.06,12.06,0,0,0,1.364.08,11.747,11.747,0,0,0,7.971-3.084l5.339-1.1a15.312,15.312,0,0,1-12.99,7.691ZM33.74,74.871l-3.958.817a11.863,11.863,0,0,0-.342-9.84l1.281-4.557.839,1.237A15.347,15.347,0,0,1,33.74,74.871ZM38.813,30,42.2,28.1a20.257,20.257,0,0,0,1.654,7.393l-1.893,4.018A23.735,23.735,0,0,1,38.813,30ZM52.63,5.687l3.328,2.449a20.365,20.365,0,0,0-5.566,2.948H45.144a24.021,24.021,0,0,1,7.485-5.4ZM66.089,3.774l.986,3.758a20.468,20.468,0,0,0-6.548-.4l-3.9-2.869a23.984,23.984,0,0,1,9.46-.491ZM52.736,27.422a9.844,9.844,0,1,1,9.844,9.844A9.855,9.855,0,0,1,52.736,27.422Zm9.844-16.875a16.892,16.892,0,0,1,3.451.355L67.6,15.044a13.283,13.283,0,0,0-5.018-.982l-.075,0-6.211-2.3A16.784,16.784,0,0,1,62.579,10.547ZM78.431,21.631l-2.669,3.631a13.308,13.308,0,0,0-2.98-6.451l-2.4-6.349a16.97,16.97,0,0,1,8.051,9.17ZM52.316,14.037l4.121,1.528a13.441,13.441,0,0,0-3.994,3.171l-5.356,2a16.969,16.969,0,0,1,5.229-6.7Zm23.623,16.92,3.473-4.724c.028.393.043.79.043,1.19v10.31L75.939,43.06Zm1.4-17.586a20.485,20.485,0,0,0-6.278-4.488l-1.1-4.2a23.888,23.888,0,0,1,7.77,4.262ZM42.411,14.6h4.326a20.312,20.312,0,0,0-4.244,9.3l-3.778,2.12a23.748,23.748,0,0,1,3.7-11.423ZM45.7,27.422a16.934,16.934,0,0,1,.183-2.485l3.93-1.468a13.356,13.356,0,0,0-.142,7.406l-1.226,5.761A16.774,16.774,0,0,1,45.7,27.422Zm5.626,12.567.883-4.152a13.4,13.4,0,0,0,6.4,4.343l3.345,4.1A16.806,16.806,0,0,1,51.331,39.989Zm14.86,3.923L63.6,40.738a13.331,13.331,0,0,0,8.819-4.3V41.13A16.651,16.651,0,0,1,66.191,43.912Zm9.748,5.532,3.516-5.328V56.959a5.245,5.245,0,0,0-1.9.549l-1.618.824ZM73.878,65.3a1.76,1.76,0,0,1,.769-2.364l4.5-2.293a1.758,1.758,0,1,1,1.595,3.133l-4.5,2.293a1.759,1.759,0,0,1-2.364-.769Zm9.092-25.39V29.7l3.467-3.782c.031.5.049,1,.049,1.5A23.811,23.811,0,0,1,82.97,39.907Zm2.768-18.427L82.788,24.7A20.235,20.235,0,0,0,80.5,17.693l.483-5.517A23.858,23.858,0,0,1,85.738,21.481ZM49.16,3.516a27.56,27.56,0,0,0-4.9,3.522q-1.048.022-2.073.132l-1.4-3.535c.822-.077,1.651-.119,2.486-.119ZM26.247,9.8A25.973,25.973,0,0,1,37.231,4.216l1.428,3.6A23.987,23.987,0,0,0,33.54,9.8ZM44.3,42.8l1.679-3.562a20.559,20.559,0,0,0,5.381,5.194l.506,4.35A24.057,24.057,0,0,1,44.3,42.8Zm11.278,7.475L55.122,46.4a20.236,20.236,0,0,0,5.906,1.353L64,51.287q-.705.041-1.419.041a23.821,23.821,0,0,1-7.006-1.048Zm12.519.414-2.6-3.089a20.042,20.042,0,0,0,6.928-2.318v3.927A23.57,23.57,0,0,1,68.092,50.693Zm7.847,23.926v-4.87a5.241,5.241,0,0,0,1.9-.548l1.618-.824v6.242Z" transform="translate(-0.003 0)" fill="#fff"/>
      <path id="XMLID_938_" d="M92.5,102.576a1.758,1.758,0,1,0-1.243-.515A1.77,1.77,0,0,0,92.5,102.576Z" transform="translate(-74.789 -81.647)" fill="#fff"/>
    </g>
  </g>
</svg>
