<svg xmlns="http://www.w3.org/2000/svg" width="31.83" height="37.42" viewBox="0 0 31.83 37.42">
  <g id="avatar_2_" data-name="avatar (2)" transform="translate(-36.073)">
    <g id="Group_99" data-name="Group 99" transform="translate(36.073)">
      <path id="Path_207" data-name="Path 207" d="M145.034,20.163h.248a7.15,7.15,0,0,0,5.463-2.363c2.983-3.363,2.487-9.128,2.433-9.679-.194-4.13-2.147-6.106-3.758-7.028A8.616,8.616,0,0,0,145.251,0h-.132a8.629,8.629,0,0,0-4.169,1.062c-1.627.922-3.611,2.9-3.8,7.059-.054.55-.55,6.316,2.433,9.679A7.122,7.122,0,0,0,145.034,20.163Zm-5.82-11.848c0-.023.008-.046.008-.062.256-5.556,4.2-6.153,5.889-6.153h.093c2.092.046,5.649.9,5.889,6.153a.151.151,0,0,0,.008.062c.008.054.55,5.324-1.914,8.1a5.079,5.079,0,0,1-3.991,1.658h-.077a5.062,5.062,0,0,1-3.983-1.658C138.679,13.654,139.206,8.361,139.214,8.315Z" transform="translate(-129.254)" fill="#fff"/>
      <path id="Path_208" data-name="Path 208" d="M67.9,268.881v-.023c0-.062-.008-.124-.008-.194-.047-1.534-.147-5.122-3.51-6.269l-.077-.023a22.36,22.36,0,0,1-6.432-2.929,1.046,1.046,0,1,0-1.2,1.713,24.135,24.135,0,0,0,7.075,3.231c1.806.643,2.007,2.573,2.061,4.34a1.557,1.557,0,0,0,.008.194,14.067,14.067,0,0,1-.163,2.394,28.518,28.518,0,0,1-13.662,3.177,28.682,28.682,0,0,1-13.669-3.185,13.315,13.315,0,0,1-.163-2.394c0-.062.008-.124.008-.194.054-1.767.256-3.7,2.061-4.34a24.361,24.361,0,0,0,7.075-3.231,1.046,1.046,0,1,0-1.2-1.713,22.114,22.114,0,0,1-6.432,2.929c-.031.008-.054.015-.077.023-3.363,1.155-3.464,4.742-3.51,6.269a1.557,1.557,0,0,1-.008.194v.023a11.883,11.883,0,0,0,.4,3.51.994.994,0,0,0,.4.488c.232.155,5.8,3.7,15.126,3.7s14.894-3.557,15.126-3.7a1.037,1.037,0,0,0,.4-.488A12.467,12.467,0,0,0,67.9,268.881Z" transform="translate(-36.073 -239.155)" fill="#fff"/>
    </g>
  </g>
</svg>
